<svg width="81" height="81" viewBox="0 0 81 81" fill="none" xmlns="http://www.w3.org/2000/svg">
<line x1="2.5" y1="1.09278e-07" x2="2.5" y2="80.5" stroke="#BE52F2" stroke-width="5"/>
<line y1="78" x2="80.5" y2="78" stroke="#BE52F2" stroke-width="5"/>
<path d="M18.4944 65.9418C19.8599 55.9562 22.7767 41.171 27.0641 29.2487C29.2144 23.2691 31.6573 18.1602 34.3256 14.7376C37.0263 11.2734 39.5565 10.0065 41.9577 10.4414L42.6705 6.50542C38.0538 5.66926 34.1938 8.40086 31.171 12.2783C28.1156 16.1974 25.5015 21.7733 23.3001 27.8951C18.8838 40.1758 15.9179 55.2603 14.5313 65.3998L18.4944 65.9418ZM41.9577 10.4414C44.6647 10.9317 47.3748 13.1453 49.9911 17.0618C52.5729 20.9264 54.8408 26.1205 56.7753 31.907C60.6396 43.4658 63.0424 56.9841 64.0643 65.8985L68.0383 65.443C66.9961 56.3509 64.5482 42.5415 60.5689 30.6388C58.5817 24.6946 56.1796 19.1245 53.3172 14.8398C50.4895 10.607 46.9815 7.2862 42.6705 6.50542L41.9577 10.4414Z" fill="#A5AFFB"/>
<line x1="10.3206" y1="29.7764" x2="72.2436" y2="29.7764" stroke="#BE52F2" stroke-width="4" stroke-dasharray="8 8"/>
</svg>
