<svg width="90" height="90" viewBox="0 0 90 90" fill="none" xmlns="http://www.w3.org/2000/svg">
<line x1="2" y1="8.74228e-08" x2="2" y2="90" stroke="white" stroke-width="4"/>
<line y1="88" x2="90" y2="88" stroke="white" stroke-width="4"/>
<path d="M20.4431 73.6916C21.971 62.5186 25.2349 45.9709 30.0359 32.6204C32.443 25.9267 35.1843 20.1874 38.1903 16.3316C41.2287 12.4342 44.136 10.9314 46.9513 11.4412L47.6641 7.50528C42.6333 6.59412 38.3963 9.56166 35.0357 13.8723C31.6426 18.2246 28.7301 24.431 26.2718 31.2669C21.342 44.9756 18.029 61.8227 16.48 73.1497L20.4431 73.6916ZM46.9513 11.4412C50.0724 12.0065 53.1494 14.5467 56.087 18.944C58.9899 23.2895 61.5334 29.1188 63.6994 35.5975C68.0265 48.5407 70.7155 63.6714 71.8592 73.6484L75.8331 73.1929C74.6691 63.0383 71.9351 47.6164 67.493 34.3293C65.2743 27.6929 62.5966 21.4876 59.4131 16.7221C56.2641 12.0084 52.3892 8.36105 47.6641 7.50528L46.9513 11.4412Z" fill="#E5E7FA"/>
<line x1="11.5385" y1="33.5264" x2="80.7693" y2="33.5264" stroke="white" stroke-width="4" stroke-dasharray="8 8"/>
</svg>
