<svg width="90" height="91" viewBox="0 0 90 91" fill="none" xmlns="http://www.w3.org/2000/svg">
<mask id="mask0_73053_1257" style="mask-type:alpha" maskUnits="userSpaceOnUse" x="0" y="0" width="90" height="91">
<circle cx="45" cy="45.1599" r="44" fill="#C4C4C4" stroke="white" stroke-width="2"/>
</mask>
<g mask="url(#mask0_73053_1257)">
<line x1="-134.537" y1="127.616" x2="127.456" y2="-134.377" stroke="#E5E7FA" stroke-width="0.75"/>
<line x1="-128.837" y1="133.316" x2="133.156" y2="-128.677" stroke="#E5E7FA" stroke-width="0.75"/>
<line x1="-123.136" y1="139.016" x2="138.856" y2="-122.976" stroke="#E5E7FA" stroke-width="0.75"/>
<line x1="-117.436" y1="144.717" x2="144.557" y2="-117.276" stroke="#E5E7FA" stroke-width="0.75"/>
<line x1="-111.736" y1="150.417" x2="150.257" y2="-111.576" stroke="#E5E7FA" stroke-width="0.75"/>
<line x1="-106.036" y1="156.117" x2="155.957" y2="-105.876" stroke="#E5E7FA" stroke-width="0.75"/>
<line x1="-100.335" y1="161.817" x2="161.657" y2="-100.176" stroke="#E5E7FA" stroke-width="0.75"/>
<line x1="-94.6353" y1="167.517" x2="167.357" y2="-94.4754" stroke="#E5E7FA" stroke-width="0.75"/>
<line x1="-88.9351" y1="173.218" x2="173.058" y2="-88.7752" stroke="#E5E7FA" stroke-width="0.75"/>
<line x1="-83.2349" y1="178.918" x2="178.758" y2="-83.0751" stroke="#E5E7FA" stroke-width="0.75"/>
<line x1="-77.5347" y1="184.618" x2="184.458" y2="-77.3749" stroke="#E5E7FA" stroke-width="0.75"/>
<line x1="-71.8345" y1="190.318" x2="190.158" y2="-71.6747" stroke="#E5E7FA" stroke-width="0.75"/>
<line x1="-66.1342" y1="196.018" x2="195.859" y2="-65.9743" stroke="#E5E7FA" stroke-width="0.75"/>
<line x1="-60.434" y1="201.719" x2="201.559" y2="-60.2741" stroke="#E5E7FA" stroke-width="0.75"/>
<line x1="-54.7338" y1="207.419" x2="207.259" y2="-54.574" stroke="#E5E7FA" stroke-width="0.75"/>
<line x1="-49.0336" y1="213.119" x2="212.959" y2="-48.8738" stroke="#E5E7FA" stroke-width="0.75"/>
<line x1="-43.3334" y1="218.819" x2="218.659" y2="-43.1736" stroke="#E5E7FA" stroke-width="0.75"/>
<line x1="-37.6332" y1="224.519" x2="224.36" y2="-37.4734" stroke="#E5E7FA" stroke-width="0.75"/>
</g>
<circle cx="45" cy="45.1599" r="44" stroke="white" stroke-width="2"/>
</svg>
