<svg width="98" height="98" viewBox="0 0 98 98" fill="none" xmlns="http://www.w3.org/2000/svg">
<circle cx="48.525" cy="48.2751" r="34.525" stroke="white" stroke-width="2"/>
<path d="M49.9322 3.39648C49.737 3.59174 49.737 3.90833 49.9322 4.10359L53.1142 7.28557C53.3095 7.48083 53.626 7.48083 53.8213 7.28557C54.0166 7.09031 54.0166 6.77372 53.8213 6.57846L50.9929 3.75003L53.8213 0.921608C54.0166 0.726345 54.0166 0.409763 53.8213 0.2145C53.626 0.0192375 53.3095 0.0192375 53.1142 0.2145L49.9322 3.39648ZM67.0145 7.05868L67.2049 6.59636L67.0145 7.05868ZM90.6725 30.5823L91.134 30.39L90.6725 30.5823ZM93.6465 47.5695C93.8418 47.7648 94.1583 47.7648 94.3536 47.5695L97.5356 44.3875C97.7308 44.1923 97.7308 43.8757 97.5356 43.6804C97.3403 43.4851 97.0237 43.4851 96.8285 43.6804L94 46.5088L91.1716 43.6804C90.9764 43.4851 90.6598 43.4851 90.4645 43.6804C90.2692 43.8757 90.2692 44.1923 90.4645 44.3875L93.6465 47.5695ZM50.2858 4.25003C55.9611 4.25003 61.5809 5.36153 66.8241 7.521L67.2049 6.59636C61.8408 4.38709 56.0917 3.25003 50.2858 3.25003V4.25003ZM66.8241 7.521C72.0673 9.68047 76.8312 12.8456 80.8439 16.8355L81.549 16.1263C77.4432 12.0439 72.569 8.80562 67.2049 6.59636L66.8241 7.521ZM80.8439 16.8355C84.8566 20.8253 88.0395 25.5619 90.2109 30.7745L91.134 30.39C88.9118 25.0556 85.6548 20.2088 81.549 16.1263L80.8439 16.8355ZM90.2109 30.7745C92.3824 35.9872 93.5 41.574 93.5 47.2159H94.5C94.5 41.4419 93.3563 35.7244 91.134 30.39L90.2109 30.7745Z" fill="#E5E7FA"/>
<path d="M94.3536 49.9307C94.1583 49.7355 93.8418 49.7355 93.6465 49.9307L90.4645 53.1127C90.2693 53.308 90.2693 53.6246 90.4645 53.8198C90.6598 54.0151 90.9764 54.0151 91.1716 53.8198L94 50.9914L96.8285 53.8198C97.0237 54.0151 97.3403 54.0151 97.5356 53.8198C97.7308 53.6246 97.7308 53.308 97.5356 53.1127L94.3536 49.9307ZM90.6725 66.918L91.1341 67.1103L90.6725 66.918ZM67.0145 90.4416L67.2049 90.9039L67.0145 90.4416ZM49.9322 93.3967C49.737 93.5919 49.737 93.9085 49.9322 94.1038L53.1142 97.2857C53.3095 97.481 53.626 97.481 53.8213 97.2857C54.0166 97.0905 54.0166 96.7739 53.8213 96.5786L50.9929 93.7502L53.8213 90.9218C54.0166 90.7265 54.0166 90.4099 53.8213 90.2147C53.626 90.0194 53.3095 90.0194 53.1142 90.2147L49.9322 93.3967ZM93.5 50.2843C93.5 55.9263 92.3824 61.5131 90.2109 66.7257L91.1341 67.1103C93.3563 61.7759 94.5 56.0584 94.5 50.2843H93.5ZM90.2109 66.7257C88.0395 71.9384 84.8566 76.6749 80.8439 80.6648L81.549 81.3739C85.6548 77.2914 88.9118 72.4446 91.1341 67.1103L90.2109 66.7257ZM80.8439 80.6648C76.8312 84.6547 72.0673 87.8198 66.8241 89.9792L67.2049 90.9039C72.569 88.6946 77.4432 85.4564 81.549 81.3739L80.8439 80.6648ZM66.8241 89.9792C61.5809 92.1387 55.9611 93.2502 50.2858 93.2502V94.2502C56.0917 94.2502 61.8408 93.1131 67.2049 90.9039L66.8241 89.9792Z" fill="#E5E7FA"/>
<path d="M48.0678 94.1038C48.2631 93.9085 48.2631 93.5919 48.0678 93.3967L44.8858 90.2147C44.6905 90.0194 44.374 90.0194 44.1787 90.2147C43.9834 90.4099 43.9834 90.7265 44.1787 90.9218L47.0071 93.7502L44.1787 96.5786C43.9834 96.7739 43.9834 97.0905 44.1787 97.2857C44.374 97.481 44.6905 97.481 44.8858 97.2857L48.0678 94.1038ZM30.9855 90.4416L30.7951 90.9039L30.9855 90.4416ZM7.3275 66.918L6.86595 67.1103L7.3275 66.918ZM4.35351 49.9308C4.15825 49.7355 3.84166 49.7355 3.6464 49.9308L0.464421 53.1127C0.269158 53.308 0.269158 53.6246 0.464421 53.8198C0.659684 54.0151 0.976265 54.0151 1.17153 53.8198L3.99995 50.9914L6.82838 53.8198C7.02364 54.0151 7.34023 54.0151 7.53549 53.8198C7.73075 53.6246 7.73075 53.308 7.53549 53.1127L4.35351 49.9308ZM47.7142 93.2502C42.0389 93.2502 36.4191 92.1387 31.1759 89.9792L30.7951 90.9039C36.1592 93.1132 41.9083 94.2502 47.7142 94.2502L47.7142 93.2502ZM31.1759 89.9792C25.9327 87.8198 21.1688 84.6547 17.1561 80.6648L16.451 81.3739C20.5568 85.4564 25.431 88.6946 30.7951 90.9039L31.1759 89.9792ZM17.1561 80.6648C13.1434 76.6749 9.96055 71.9384 7.78906 66.7257L6.86595 67.1103C9.08816 72.4447 12.3452 77.2914 16.451 81.3739L17.1561 80.6648ZM7.78906 66.7257C5.61757 61.5131 4.49995 55.9263 4.49995 50.2843L3.49995 50.2843C3.49995 56.0584 4.64374 61.7759 6.86595 67.1103L7.78906 66.7257Z" fill="#E5E7FA"/>
<path d="M3.6464 47.5695C3.84166 47.7648 4.15824 47.7648 4.3535 47.5695L7.53548 44.3875C7.73075 44.1923 7.73075 43.8757 7.53548 43.6804C7.34022 43.4851 7.02364 43.4851 6.82838 43.6804L3.99995 46.5088L1.17152 43.6804C0.976261 43.4852 0.659679 43.4852 0.464416 43.6804C0.269153 43.8757 0.269153 44.1923 0.464416 44.3875L3.6464 47.5695ZM7.3275 30.5823L6.86595 30.39L7.3275 30.5823ZM30.9855 7.05868L30.7951 6.59636L30.9855 7.05868ZM48.0678 4.10359C48.263 3.90833 48.263 3.59175 48.0678 3.39648L44.8858 0.214504C44.6905 0.0192416 44.374 0.0192416 44.1787 0.214505C43.9834 0.409767 43.9834 0.726349 44.1787 0.921612L47.0071 3.75004L44.1787 6.57846C43.9834 6.77373 43.9834 7.09031 44.1787 7.28557C44.374 7.48084 44.6905 7.48084 44.8858 7.28557L48.0678 4.10359ZM4.49995 47.2159C4.49995 41.574 5.61756 35.9872 7.78905 30.7745L6.86595 30.39C4.64374 35.7244 3.49995 41.4419 3.49995 47.2159L4.49995 47.2159ZM7.78905 30.7745C9.96054 25.5619 13.1434 20.8253 17.1561 16.8355L16.451 16.1263C12.3452 20.2088 9.08815 25.0556 6.86595 30.39L7.78905 30.7745ZM17.1561 16.8355C21.1688 12.8456 25.9327 9.68048 31.1759 7.52101L30.7951 6.59636C25.431 8.80563 20.5568 12.0439 16.451 16.1263L17.1561 16.8355ZM31.1759 7.52101C36.4191 5.36154 42.0389 4.25004 47.7142 4.25004L47.7142 3.25004C41.9083 3.25004 36.1592 4.3871 30.7951 6.59636L31.1759 7.52101Z" fill="#E5E7FA"/>
</svg>
