<svg width="87" height="90" viewBox="0 0 87 90" fill="none" xmlns="http://www.w3.org/2000/svg">
<path d="M78.9474 53.3274V52.8947V34.7368V33.9474V15V14.2105C78.9474 13.9232 78.8495 13.6689 78.7168 13.4368C76.89 6.66316 63.2811 0 39.4737 0C15.6663 0 2.05737 6.66316 0.230526 13.4368C0.0978948 13.6689 0 13.9232 0 14.2105V15V33.9474V34.7368V52.8947V53.6842V72.6316C0 72.8874 0.0663158 73.129 0.184737 73.3437C2.04789 81.0726 18.7326 86.8421 39.4737 86.8421C44.4726 86.8421 49.3374 86.4947 53.9621 85.8268C57.4042 88.4337 61.6753 90 66.3158 90C77.6337 90 86.8421 80.7916 86.8421 69.4737C86.8421 62.9211 83.7442 57.0884 78.9474 53.3274ZM73.8142 50.3858C73.5932 50.2989 73.3705 50.2216 73.1479 50.1411C72.6568 49.9674 72.1579 49.8126 71.6511 49.6753C71.3984 49.6074 71.1474 49.5379 70.8932 49.4795C70.3768 49.3611 69.8526 49.2711 69.3221 49.1921C69.0884 49.1574 68.8579 49.1116 68.6226 49.0847C67.8632 49.0011 67.0958 48.9474 66.3158 48.9474C65.6605 48.9474 65.0147 48.9853 64.3737 49.0468C64.1605 49.0674 63.9521 49.1021 63.7405 49.1274C63.3158 49.1811 62.8926 49.2411 62.4758 49.3216C62.2342 49.3674 61.9974 49.4211 61.7605 49.4763C61.3737 49.5647 60.9916 49.6626 60.6126 49.7732C60.3821 49.8395 60.1516 49.9074 59.9242 49.9832C59.5263 50.1142 59.1347 50.2611 58.7479 50.4142C58.56 50.4884 58.3689 50.5579 58.1842 50.6384C57.6616 50.8642 57.15 51.1105 56.6511 51.3774C56.6116 51.3995 56.5689 51.4168 56.5279 51.4389C55.9626 51.7468 55.4163 52.0816 54.8842 52.4384C54.8258 52.4779 54.7705 52.5221 54.7121 52.5632C54.2542 52.8774 53.8105 53.2105 53.3795 53.5611C53.2737 53.6463 53.1742 53.7363 53.07 53.8247C52.6926 54.1453 52.3263 54.4768 51.9726 54.8226C51.8653 54.9284 51.7595 55.0342 51.6537 55.1432C51.3142 55.4905 50.9874 55.8505 50.6732 56.2232C50.5768 56.3368 50.4789 56.4474 50.3858 56.5626C50.0668 56.9558 49.7668 57.36 49.4763 57.7768C49.4037 57.8811 49.3263 57.9805 49.2568 58.0847C48.9142 58.5979 48.5874 59.1253 48.2905 59.6732C48.2668 59.7158 48.2479 59.76 48.2242 59.8026C47.9605 60.2968 47.7142 60.8053 47.49 61.3247C47.3589 61.6263 47.2484 61.9405 47.13 62.25C47.0353 62.5026 46.9358 62.7537 46.8505 63.0111C46.7274 63.379 46.6232 63.7563 46.5205 64.1337C46.4874 64.2553 46.4447 64.3705 46.4147 64.4937C45.7863 64.5363 45.1563 64.5742 44.5247 64.6042C44.1032 64.6247 43.6847 64.6516 43.2632 64.6674C42 64.7084 40.7353 64.7368 39.4737 64.7368C38.1679 64.7368 36.8889 64.7116 35.6337 64.6674C34.8726 64.639 34.1384 64.59 33.3963 64.5474C32.9274 64.5205 32.4442 64.5032 31.9832 64.47C30.9979 64.3989 30.0411 64.3074 29.0953 64.2095C28.9058 64.1889 28.7068 64.1763 28.5189 64.1558C27.4358 64.0374 26.3811 63.9016 25.3532 63.7516C25.3153 63.7468 25.2758 63.7421 25.2395 63.7374C19.9042 62.9495 15.3253 61.7479 11.7426 60.319C11.7158 60.3079 11.6874 60.2984 11.6621 60.2874C11.0084 60.0237 10.3942 59.7537 9.80842 59.4758C9.73421 59.4411 9.65526 59.4063 9.58105 59.37C9.05526 59.1174 8.57053 58.8568 8.10474 58.5947C7.98947 58.5284 7.86789 58.4637 7.75579 58.3974C7.35158 58.1605 6.9821 57.9174 6.62842 57.6742C6.48789 57.5763 6.34421 57.48 6.21316 57.3821C5.91632 57.1626 5.64789 56.94 5.39211 56.7174C5.24684 56.5911 5.10316 56.4647 4.97211 56.3368C4.76211 56.1332 4.57895 55.9295 4.40526 55.7258C4.27895 55.5774 4.15895 55.4289 4.05158 55.2789C3.91421 55.0879 3.79737 54.8968 3.69316 54.7058C3.60632 54.5463 3.52895 54.3868 3.46263 54.2274C3.38684 54.0395 3.32684 53.8516 3.28263 53.6653C3.22263 53.4079 3.15789 53.1505 3.15789 52.8947V39.9363C3.18632 39.9616 3.21947 39.9868 3.24789 40.0121C3.61421 40.3358 3.99 40.6579 4.41316 40.9674C10.3689 45.4595 22.2553 48.9474 39.4737 48.9474C56.6526 48.9474 68.52 45.4753 74.49 40.9989C74.9479 40.6642 75.3584 40.3184 75.7516 39.9679C75.7642 39.9568 75.7784 39.9458 75.7895 39.9347V51.2732C75.7058 51.2289 75.6158 51.2005 75.5305 51.1563C74.9716 50.8753 74.4 50.6163 73.8142 50.3858ZM4.10684 21.7847C4.58053 22.1574 5.09211 22.5253 5.64632 22.8837C5.76158 22.9579 5.89105 23.0305 6.01105 23.1047C6.47526 23.3937 6.96632 23.6763 7.48263 23.9542C7.67368 24.0568 7.86474 24.1579 8.06211 24.2589C8.63842 24.5526 9.24316 24.8368 9.87947 25.1147C9.98368 25.1605 10.0784 25.2079 10.1842 25.2521C10.9247 25.5663 11.7111 25.8663 12.5289 26.1553C12.7547 26.2358 12.9916 26.3116 13.2237 26.3905C13.8742 26.61 14.5468 26.82 15.2432 27.0237C15.4942 27.0963 15.7405 27.1721 15.9979 27.2432C16.9216 27.4989 17.8753 27.7421 18.8763 27.9663C19.0137 27.9979 19.1621 28.0247 19.3011 28.0547C20.1837 28.2474 21.0995 28.4258 22.0405 28.5916C22.3595 28.6484 22.6832 28.7021 23.0084 28.7558C23.9037 28.9026 24.8258 29.0384 25.7716 29.1616C26.0147 29.1932 26.2468 29.2279 26.4932 29.2595C27.6679 29.4016 28.8837 29.5232 30.1326 29.6274C30.4405 29.6526 30.7611 29.6716 31.0737 29.6937C32.0732 29.7663 33.0947 29.8263 34.14 29.8737C34.5205 29.8911 34.8995 29.9084 35.2879 29.9211C36.6505 29.9668 38.0368 30 39.4737 30C40.9105 30 42.2968 29.9668 43.6579 29.9211C44.0447 29.9084 44.4237 29.8895 44.8058 29.8737C45.8511 29.8263 46.8726 29.7663 47.8721 29.6937C48.1847 29.67 48.5037 29.6526 48.8132 29.6274C50.0621 29.5247 51.2779 29.4016 52.4526 29.2595C52.6989 29.2295 52.931 29.1932 53.1742 29.1616C54.12 29.0384 55.0405 28.9026 55.9374 28.7558C56.2626 28.7021 56.5863 28.6484 56.9053 28.5916C57.8463 28.4258 58.7621 28.2474 59.6447 28.0547C59.7837 28.0247 59.9321 27.9979 60.0695 27.9663C61.0705 27.7421 62.0242 27.4989 62.9479 27.2432C63.2053 27.1721 63.4516 27.0979 63.7026 27.0237C64.3989 26.8216 65.0716 26.61 65.7221 26.3905C65.9542 26.3116 66.191 26.2358 66.4168 26.1553C67.2347 25.8647 68.0226 25.5647 68.7616 25.2521C68.8674 25.2079 68.9621 25.1589 69.0663 25.1147C69.7026 24.8368 70.3074 24.5526 70.8837 24.2589C71.0811 24.1579 71.2737 24.0568 71.4632 23.9542C71.9795 23.6779 72.4705 23.3953 72.9347 23.1047C73.0547 23.0305 73.1842 22.9579 73.2995 22.8837C73.8537 22.5253 74.3653 22.1589 74.8389 21.7847C74.9574 21.69 75.0632 21.5953 75.1784 21.5005C75.3837 21.33 75.6 21.1611 75.7895 20.9889V33.9474C75.7895 34.2047 75.7247 34.4637 75.6632 34.7226C75.6189 34.9074 75.5605 35.0905 75.4863 35.2768C75.42 35.4395 75.341 35.6021 75.2526 35.7647C75.1484 35.9526 75.0347 36.1405 74.9005 36.3284C74.7916 36.48 74.6684 36.6316 74.5405 36.7847C74.37 36.9853 74.1884 37.1858 73.9832 37.3847C73.8489 37.5158 73.7021 37.6453 73.5537 37.7747C73.301 37.9942 73.0374 38.2137 72.7437 38.43C72.6079 38.5311 72.4595 38.6305 72.3158 38.73C71.9653 38.9716 71.6005 39.2116 71.201 39.4453C71.0842 39.5147 70.9595 39.5826 70.8379 39.6505C70.3768 39.9111 69.8953 40.1684 69.3758 40.4195C69.2984 40.4558 69.2132 40.4937 69.1342 40.5316C68.5516 40.8063 67.9437 41.0763 67.2932 41.3368C67.2632 41.3479 67.2316 41.3605 67.2016 41.3716C63.6189 42.799 59.0447 44.0005 53.7126 44.7884C53.6747 44.7932 53.6337 44.7979 53.5958 44.8042C52.5679 44.9542 51.5147 45.09 50.4332 45.2084C50.2437 45.229 50.0447 45.2432 49.8537 45.2621C48.9079 45.36 47.9526 45.4516 46.9689 45.5226C46.5063 45.5558 46.0232 45.5732 45.5526 45.6C44.8121 45.6426 44.0779 45.6932 43.3168 45.72C42.0584 45.7642 40.7795 45.7895 39.4737 45.7895C38.1679 45.7895 36.8889 45.7642 35.6337 45.72C34.8726 45.6916 34.1384 45.6426 33.3963 45.6C32.9274 45.5732 32.4442 45.5558 31.9832 45.5226C30.9979 45.4516 30.0411 45.36 29.0953 45.2621C28.9058 45.2416 28.7068 45.229 28.5189 45.2084C27.4358 45.09 26.3811 44.9542 25.3532 44.8042C25.3153 44.7995 25.2758 44.7947 25.2395 44.79C19.9042 44.0021 15.3253 42.8005 11.7426 41.3716C11.7158 41.3605 11.6874 41.3511 11.6621 41.34C11.0084 41.0763 10.3942 40.8063 9.80842 40.5284C9.73421 40.4937 9.65526 40.459 9.58105 40.4226C9.05526 40.17 8.57053 39.9095 8.10474 39.6474C7.98947 39.5811 7.86789 39.5163 7.75579 39.45C7.35158 39.2132 6.9821 38.97 6.62842 38.7268C6.48789 38.6289 6.34421 38.5326 6.21316 38.4347C5.91632 38.2153 5.64789 37.9926 5.39211 37.77C5.24684 37.6437 5.10316 37.5174 4.97211 37.3895C4.76211 37.1858 4.57895 36.9821 4.40526 36.7784C4.27895 36.63 4.15895 36.4816 4.05158 36.3316C3.91421 36.1405 3.79737 35.9495 3.69316 35.7584C3.60632 35.5989 3.52895 35.4395 3.46263 35.28C3.38684 35.0921 3.32684 34.9042 3.28263 34.7179C3.22263 34.4605 3.15789 34.2032 3.15789 33.9474V20.9889C3.34737 21.1611 3.56368 21.33 3.76895 21.5005C3.88263 21.5953 3.98842 21.69 4.10684 21.7847ZM39.4737 3.15789C60.8747 3.15789 75.7895 9.39789 75.7895 15C75.7895 20.6021 60.8747 26.8421 39.4737 26.8421C18.0726 26.8421 3.15789 20.6021 3.15789 15C3.15789 9.39789 18.0726 3.15789 39.4737 3.15789ZM39.4737 83.6842C18.8889 83.6842 4.10368 77.8374 3.20842 72.3758C3.19579 72.3047 3.18 72.2353 3.15789 72.169V58.8837C3.18632 58.9089 3.21947 58.9342 3.24789 58.9595C3.61421 59.2832 3.99 59.6053 4.41316 59.9147C10.3689 64.4068 22.2553 67.8947 39.4737 67.8947C40.7321 67.8947 41.9937 67.8647 43.2537 67.8205C43.6311 67.8079 44.0053 67.7874 44.3826 67.77C44.8784 67.7479 45.3774 67.7337 45.8716 67.7037C45.8179 68.3037 45.7895 68.8942 45.7895 69.4737C45.7895 70.1447 45.8274 70.8111 45.8905 71.4711C45.911 71.6842 45.9505 71.8926 45.9774 72.1026C46.0342 72.5479 46.0942 72.9916 46.181 73.429C46.2268 73.6611 46.2868 73.8868 46.3405 74.1174C46.4368 74.5295 46.5363 74.94 46.6563 75.3458C46.7211 75.5637 46.7968 75.7768 46.8695 75.9932C47.0068 76.4021 47.1521 76.8079 47.3147 77.2089C47.3937 77.4032 47.4774 77.5926 47.5626 77.7821C47.7442 78.1926 47.9384 78.5968 48.1468 78.9947C48.2368 79.1637 48.3284 79.3326 48.4216 79.5C48.6474 79.9011 48.8858 80.2942 49.1384 80.6795C49.2395 80.8342 49.3405 80.9874 49.4447 81.139C49.7068 81.5163 49.9832 81.8826 50.2705 82.2426C50.3889 82.3926 50.5074 82.5426 50.6305 82.6879C50.73 82.8063 50.82 82.9326 50.9226 83.0495C47.231 83.4695 43.3942 83.6842 39.4737 83.6842ZM66.3158 86.8421C62.1474 86.8421 58.3184 85.3626 55.3216 82.9074C54.8589 82.5268 54.4184 82.1258 54.0016 81.7074C53.8311 81.5353 53.6763 81.349 53.5137 81.1705C53.2753 80.91 53.0353 80.6495 52.8142 80.3763C52.6263 80.1442 52.4542 79.9011 52.2774 79.6595C52.1021 79.4195 51.9284 79.1795 51.7674 78.9316C51.5984 78.6726 51.4405 78.4074 51.2858 78.1405C51.1389 77.8863 50.9984 77.6305 50.8642 77.37C50.7268 77.1016 50.5942 76.83 50.4711 76.5537C50.3432 76.2695 50.2279 75.9805 50.1174 75.69C50.0147 75.4263 49.9137 75.1611 49.8237 74.8911C49.7163 74.5626 49.6263 74.2279 49.5379 73.8932C49.4732 73.6468 49.4005 73.4021 49.3468 73.1511C49.2616 72.7563 49.2016 72.3553 49.1447 71.9526C49.1147 71.7489 49.0737 71.5484 49.0516 71.34C48.9853 70.7226 48.9474 70.1005 48.9474 69.4737C48.9474 68.9321 48.9805 68.3984 49.0295 67.8679C49.08 67.35 49.1542 66.8242 49.2553 66.2826C49.3342 65.8547 49.4384 65.4379 49.5474 65.0226C49.5774 64.9074 49.6042 64.7921 49.6358 64.6768C49.7353 64.3295 49.8521 63.99 49.9705 63.6537C50.0368 63.4689 50.1016 63.2842 50.1726 63.1011C50.2832 62.8216 50.4032 62.5453 50.5279 62.2737C50.6353 62.0384 50.7474 61.8032 50.8658 61.5726C50.9795 61.3516 51.0963 61.1337 51.2179 60.9174C51.3758 60.6395 51.5432 60.3679 51.7153 60.0995C51.821 59.9337 51.9253 59.7679 52.0374 59.6053C52.2584 59.2863 52.4937 58.9768 52.7353 58.6737C52.8189 58.5695 52.8963 58.4621 52.9816 58.3595C53.31 57.9647 53.6542 57.5842 54.0174 57.2195C54.0268 57.21 54.0347 57.2005 54.0442 57.1911C54.8116 56.4253 55.6516 55.7321 56.55 55.1179C56.6526 55.0484 56.7616 54.9853 56.8658 54.9174C57.2005 54.6995 57.5416 54.4895 57.8921 54.2937C58.0532 54.2037 58.2174 54.1232 58.38 54.0395C58.6847 53.8816 58.9942 53.73 59.3084 53.5911C59.501 53.5058 59.6953 53.4268 59.891 53.3479C60.1911 53.2279 60.4958 53.1174 60.8037 53.0132C61.0137 52.9437 61.2237 52.8742 61.4368 52.8126C61.7479 52.7211 62.0653 52.6437 62.3826 52.5695C62.5942 52.5205 62.8058 52.4684 63.0205 52.4258C63.371 52.3579 63.7279 52.3089 64.0863 52.2616C64.2742 52.2379 64.4589 52.2047 64.6468 52.1874C65.1979 52.1368 65.7521 52.1053 66.3158 52.1053C66.8542 52.1053 67.3847 52.1384 67.9105 52.1858C68.0747 52.2 68.2374 52.2221 68.4016 52.2426C68.771 52.2868 69.1358 52.3437 69.4974 52.41C69.6726 52.4432 69.8479 52.4747 70.0232 52.5126C70.4084 52.5963 70.7874 52.6974 71.1616 52.8063C71.2879 52.8426 71.4158 52.8726 71.5405 52.9105C72.0032 53.0574 72.4547 53.2263 72.9 53.4095C73.1132 53.4979 73.32 53.5974 73.53 53.6937C73.7732 53.8058 74.0132 53.9195 74.25 54.0411C74.4853 54.1626 74.7174 54.2905 74.9479 54.4232C75.1453 54.5368 75.3363 54.6553 75.5289 54.7768C75.7674 54.9268 76.0058 55.0753 76.2379 55.2379C80.7316 58.38 83.6842 63.5858 83.6842 69.4737C83.6842 79.05 75.8921 86.8421 66.3158 86.8421Z" fill="white"/>
<path d="M86.8421 69.4736C86.8421 80.81 77.6522 89.9999 66.3158 89.9999C54.9794 89.9999 45.7895 80.81 45.7895 69.4736C45.7895 58.1372 54.9794 48.9473 66.3158 48.9473C77.6522 48.9473 86.8421 58.1372 86.8421 69.4736ZM49.1148 69.4736C49.1148 78.9735 56.8159 86.6746 66.3158 86.6746C75.8157 86.6746 83.5169 78.9735 83.5169 69.4736C83.5169 59.9737 75.8157 52.2725 66.3158 52.2725C56.8159 52.2725 49.1148 59.9737 49.1148 69.4736Z" fill="#E5E7FA"/>
<path d="M75.7895 67.8948H67.8947V60.0001C67.8947 59.1269 67.1874 58.4211 66.3158 58.4211C65.4442 58.4211 64.7368 59.1269 64.7368 60.0001V67.8948H56.8421C55.9705 67.8948 55.2632 68.6006 55.2632 69.4738C55.2632 70.3469 55.9705 71.0527 56.8421 71.0527H64.7368V78.9475C64.7368 79.8206 65.4442 80.5264 66.3158 80.5264C67.1874 80.5264 67.8947 79.8206 67.8947 78.9475V71.0527H75.7895C76.661 71.0527 77.3684 70.3469 77.3684 69.4738C77.3684 68.6006 76.661 67.8948 75.7895 67.8948Z" fill="#E5E7FA"/>
</svg>
