<svg width="82" height="81" viewBox="0 0 82 81" fill="none" xmlns="http://www.w3.org/2000/svg">
<path d="M35.1883 29.6016C35.1883 32.2728 33.0229 34.4382 30.3517 34.4382C27.6805 34.4382 25.515 32.2728 25.515 29.6016C25.515 26.9303 27.6805 24.7649 30.3517 24.7649C33.0229 24.7649 35.1883 26.9303 35.1883 29.6016Z" fill="#BE52F2" stroke="#BE52F2"/>
<path d="M56.5352 50.948C56.5352 53.6192 54.3698 55.7847 51.6985 55.7847C49.0273 55.7847 46.8619 53.6192 46.8619 50.948C46.8619 48.2768 49.0273 46.1113 51.6985 46.1113C54.3698 46.1113 56.5352 48.2768 56.5352 50.948Z" fill="#BE52F2" stroke="#BE52F2"/>
<path d="M31.9058 55.4766L31.9061 55.4768C32.2526 55.6847 32.6381 55.7844 33.0177 55.7844C33.7569 55.7844 34.4735 55.4085 34.8782 54.7332L34.8783 54.733L50.8883 28.0497L50.8886 28.0493C51.5064 27.0218 51.1728 25.6909 50.1477 25.075C49.1168 24.4588 47.788 24.7932 47.1723 25.8185C47.1723 25.8185 47.1723 25.8186 47.1722 25.8186L31.1625 52.5016L31.9058 55.4766ZM31.9058 55.4766C30.8787 54.8612 30.5462 53.5304 31.1623 52.5018L31.9058 55.4766Z" fill="#BE52F2" stroke="#BE52F2"/>
<path d="M78.3043 40.275C78.3043 39.1276 78.9153 37.5933 79.5077 36.1071C80.511 33.5908 81.6504 30.7357 80.6791 27.8699C79.6811 24.9241 76.9674 23.2484 74.5766 21.7674C73.2158 20.9269 71.8149 20.057 71.1505 19.1845C70.4807 18.3039 70.0671 16.823 69.6269 15.254C68.8931 12.6257 68.0552 9.6452 65.4909 7.85742C62.988 6.11767 59.8341 6.27243 57.0457 6.40585C55.386 6.4859 53.6702 6.57128 52.5148 6.21106C51.4608 5.88285 50.2387 4.93293 48.9446 3.9243C46.7352 2.20055 44.2297 0.25 41.025 0.25C37.8203 0.25 35.3148 2.20055 33.1027 3.9243C31.8112 4.93293 30.5891 5.88285 29.5325 6.21106C28.3771 6.56861 26.6613 6.4859 25.0016 6.40585C22.2212 6.27777 19.0593 6.12033 16.5564 7.86542C13.9921 9.64787 13.1569 12.6311 12.4231 15.2594C11.9802 16.8284 11.5666 18.3093 10.8968 19.1898C10.2351 20.0597 8.83154 20.9269 7.47336 21.7648C5.08254 23.2484 2.36884 24.9267 1.36822 27.8699C0.39961 30.7357 1.53632 33.5908 2.53961 36.1071C3.13198 37.5933 3.7457 39.1276 3.7457 40.275C3.7457 41.4224 3.13465 42.9567 2.54228 44.4429C1.53899 46.9592 0.399611 49.8143 1.37088 52.6801C2.36884 55.6259 5.08254 57.3016 7.47336 58.7826C8.83421 59.6231 10.2351 60.493 10.8995 61.3655C11.5693 62.2461 11.9828 63.727 12.4231 65.296C13.1569 67.9243 13.9948 70.9048 16.559 72.6926C19.0619 74.4323 22.2106 74.2749 25.0043 74.1442C26.6667 74.0668 28.3851 73.9814 29.5351 74.339C30.5891 74.6672 31.8112 75.6171 33.1054 76.6257C35.3148 78.3494 37.8203 80.3 41.025 80.3C44.2297 80.3 46.7352 78.3494 48.9473 76.6257C50.2387 75.6171 51.4608 74.6672 52.5175 74.339C53.6729 73.9814 55.386 74.0614 57.0483 74.1442C59.8287 74.2776 62.9934 74.4323 65.4936 72.6872C68.0579 70.9021 68.8931 67.9216 69.6295 65.2933C70.0698 63.7243 70.4834 62.2434 71.1531 61.3628C71.8149 60.493 73.2184 59.6258 74.5766 58.7852C76.9674 57.3016 79.6811 55.6233 80.6818 52.6801C81.6504 49.8143 80.5137 46.9592 79.5104 44.4429C78.918 42.9567 78.3043 41.4224 78.3043 40.275ZM74.5526 46.4175C75.249 48.1599 75.9641 49.9637 75.6253 50.9643C75.241 52.0931 73.4746 53.1871 71.7669 54.2437C69.9977 55.3377 68.1646 56.4718 66.9052 58.1288C65.619 59.8205 65.0453 61.8672 64.4903 63.8497C63.9727 65.7016 63.4337 67.6174 62.441 68.3085C61.4324 69.013 59.3324 68.9116 57.3045 68.8102C55.1858 68.7061 52.9845 68.602 50.9298 69.2398C48.9473 69.8561 47.2796 71.1583 45.6626 72.4124C43.9842 73.7252 42.3965 74.9633 41.025 74.9633C39.6535 74.9633 38.0658 73.7252 36.3848 72.4151C34.7704 71.1583 33.1027 69.8588 31.1175 69.2424C29.834 68.8449 28.4972 68.7355 27.155 68.7355C26.3492 68.7355 25.5433 68.7781 24.7455 68.8128C22.7176 68.9142 20.6176 69.013 19.6089 68.3112C18.6163 67.6174 18.08 65.7042 17.5597 63.8524C17.0047 61.8725 16.431 59.8232 15.1448 58.1315C13.8827 56.4745 12.0522 55.3377 10.2804 54.2437C8.57272 53.1871 6.80628 52.0904 6.42471 50.9643C6.08583 49.9637 6.80361 48.1599 7.49738 46.4175C8.23917 44.555 9.08237 42.4444 9.08237 40.275C9.08237 38.1056 8.24184 35.995 7.49738 34.1325C6.80094 32.3901 6.08583 30.5863 6.42471 29.5857C6.80895 28.457 8.57538 27.3629 10.2831 26.3063C12.0522 25.2123 13.8854 24.0782 15.1448 22.4212C16.431 20.7295 17.0047 18.6828 17.5597 16.7003C18.0773 14.8485 18.6137 12.9326 19.6089 12.2415C20.6149 11.5344 22.7122 11.6304 24.7455 11.7398C26.8641 11.8439 29.0655 11.948 31.1201 11.3102C33.1027 10.6939 34.7704 9.39171 36.3874 8.13759C38.0658 6.82477 39.6535 5.58667 41.025 5.58667C42.3965 5.58667 43.9842 6.82477 45.6652 8.13493C47.2796 9.39171 48.9473 10.6912 50.9325 11.3076C52.9871 11.9453 55.1805 11.8359 57.3072 11.7372C59.3378 11.6331 61.4351 11.5344 62.4437 12.2388C63.4363 12.9326 63.9727 14.8458 64.493 16.6976C65.048 18.6775 65.6217 20.7268 66.9078 22.4185C68.1699 24.0755 70.0004 25.2123 71.7722 26.3063C73.4799 27.3629 75.2464 28.4596 75.6279 29.5857C75.9668 30.5863 75.249 32.3901 74.5553 34.1325C73.8135 35.9923 72.9703 38.103 72.9703 40.275C72.9703 42.447 73.8108 44.555 74.5526 46.4175Z" fill="#BE52F2" stroke="#BE52F2" stroke-width="0.5"/>
</svg>
