<svg width="89" height="91" viewBox="0 0 89 91" fill="none" xmlns="http://www.w3.org/2000/svg">
<path d="M86.2985 1.0432L86.2984 1.04325L80.7362 6.60401L80.5897 6.75041H80.3827H45.6664L1.90607 50.871L1.90436 50.8728C0.997918 51.7778 0.5 52.981 0.5 54.2616C0.5 55.5422 0.997918 56.7454 1.90436 57.6505L1.90462 57.6507L32.605 88.3511C33.5377 89.2838 34.7603 89.7498 35.9881 89.7498C37.2189 89.7498 38.4512 89.2805 39.3945 88.3384C39.3953 88.3376 39.396 88.3369 39.3968 88.3361L82.0038 44.578V8.3715V8.1644L82.1502 8.01795L87.711 2.45719C88.1022 2.06601 88.1023 1.43453 87.7125 1.0432C87.7123 1.04305 87.7122 1.0429 87.712 1.04275M86.2985 1.0432L85.9449 0.689651C86.5315 0.103124 87.4795 0.103124 88.066 0.689651L87.712 1.04275M86.2985 1.0432C86.6896 0.652091 87.3207 0.651938 87.712 1.04275M86.2985 1.0432L87.712 1.04275M79.8634 43.9119L80.0051 43.7663V43.5631V11.3716V10.1645L79.1516 11.0181L71.9018 18.2679L71.6128 18.5569L71.8385 18.8976C72.573 20.0064 73.0049 21.3286 73.0049 22.7512C73.0049 26.6107 69.8641 29.7515 66.0045 29.7515C62.145 29.7515 59.0042 26.6107 59.0042 22.7512C59.0042 18.8916 62.145 15.7508 66.0045 15.7508C67.4271 15.7508 68.7493 16.1827 69.8581 16.9172L70.1988 17.1429L70.4878 16.8539L77.7376 9.6041L78.5911 8.75054H77.384H46.7076H46.4993L46.3526 8.89844L3.32312 52.282C3.32293 52.2822 3.32274 52.2824 3.32255 52.2825C2.79169 52.8137 2.50014 53.5164 2.50014 54.2616C2.50014 55.0063 2.79138 55.7095 3.31861 56.2367L34.019 86.9371L34.0193 86.9374C35.1097 88.026 36.8814 88.0269 37.9696 86.9369L37.974 86.9324L79.8634 43.9119ZM68.2857 19.056L68.7854 18.5563L68.1478 18.2514C67.5029 17.943 66.7816 17.751 66.0045 17.751C63.2473 17.751 61.0043 19.9939 61.0043 22.7512C61.0043 25.5084 63.2473 27.7514 66.0045 27.7514C68.7618 27.7514 71.0047 25.5084 71.0047 22.7512C71.0047 21.9741 70.8127 21.2528 70.5043 20.6078L70.1994 19.9703L69.6997 20.47L66.7115 23.4582C66.5163 23.6534 66.261 23.7512 66.0045 23.7512C65.748 23.7512 65.4927 23.6534 65.2975 23.4582C64.9063 23.0669 64.9063 22.4354 65.2975 22.0442L68.2857 19.056Z" fill="white" stroke="white"/>
<path d="M26.3667 56.2119L26.6934 56.1154L26.5034 55.8326L25.3646 54.1385L25.2567 53.9779L25.0741 54.0422C24.7152 54.1686 24.3797 54.3051 24.068 54.452C23.7551 54.5993 23.4524 54.7665 23.1599 54.9535C22.8715 55.136 22.589 55.3431 22.3125 55.5742C22.0414 55.8001 21.7644 56.0571 21.4816 56.3449C20.8649 56.9724 20.427 57.6187 20.1803 58.285C19.9345 58.9312 19.8185 59.5572 19.8392 60.1608C19.8597 60.7563 19.9844 61.3079 20.2163 61.8125L20.2163 61.8125L20.2176 61.8153C20.4496 62.3041 20.7323 62.7163 21.0687 63.0469C21.3948 63.3673 21.7427 63.6341 22.1127 63.8456L22.1127 63.8456L22.1173 63.8481C22.5014 64.0572 22.9336 64.1782 23.4094 64.2154L23.4094 64.2154L23.4119 64.2156C23.8885 64.2481 24.418 64.1774 24.9968 64.0122C25.5802 63.8458 26.2435 63.5556 26.9848 63.1473C27.7102 62.7478 28.3162 62.4614 28.8052 62.2843L28.8079 62.2833C29.2969 62.0997 29.6957 62.0032 30.0096 61.983C30.3284 61.9625 30.5722 62.0061 30.755 62.0955L30.755 62.0957L30.7627 62.0991C30.9673 62.1908 31.1544 62.3191 31.3243 62.4861C31.5953 62.7524 31.7746 63.0415 31.8706 63.3536C31.9648 63.6714 31.9918 63.9957 31.9512 64.3287C31.9053 64.66 31.7974 64.9907 31.6244 65.3214C31.4506 65.6535 31.2289 65.9572 30.9582 66.2326C30.4425 66.7574 29.8469 67.1809 29.1701 67.5034C28.5039 67.8183 27.7337 68.0124 26.8556 68.0811L26.4354 68.114L26.6657 68.467L27.8416 70.2695L27.9271 70.4006L28.0824 70.3809C28.431 70.3368 28.7957 70.2469 29.1759 70.1131L29.1759 70.1131L29.1797 70.1117C29.5539 69.9733 29.9334 69.798 30.3184 69.5864L30.3193 69.5858C30.7105 69.3685 31.0976 69.1145 31.4808 68.8243L31.4812 68.824C31.8705 68.528 32.2416 68.2002 32.5948 67.8409C33.1022 67.3245 33.5032 66.7543 33.7959 66.1302L33.7959 66.1302L33.7969 66.128C34.0838 65.5004 34.2488 64.8625 34.289 64.2154L34.289 64.2151C34.3291 63.5573 34.2369 62.9197 34.0122 62.3043C33.7852 61.6731 33.4106 61.1036 32.8941 60.596C32.4792 60.1884 32.0336 59.8864 31.5564 59.6973C31.0822 59.5093 30.5812 59.4233 30.0556 59.4382C29.5332 59.453 28.9847 59.5626 28.4114 59.7624C27.84 59.9519 27.241 60.2225 26.6149 60.572L26.6142 60.5724C25.9557 60.9426 25.4103 61.2149 24.976 61.3922C24.5356 61.5652 24.1795 61.6612 23.9026 61.6899C23.6217 61.7137 23.4031 61.6796 23.2352 61.6041C23.0446 61.5081 22.8577 61.3723 22.6751 61.1928C22.5044 61.025 22.375 60.8208 22.2878 60.576C22.2054 60.3264 22.1747 60.0593 22.1983 59.7721C22.2219 59.4846 22.3001 59.1905 22.4365 58.8887C22.5748 58.5883 22.7767 58.3007 23.0463 58.0263C23.269 57.7996 23.493 57.6 23.7183 57.4268C23.9415 57.2552 24.1838 57.1013 24.4456 56.9652L24.4456 56.9652L24.4503 56.9627C24.7082 56.8216 24.9909 56.6934 25.2989 56.5783L25.299 56.5784L25.3051 56.5759C25.6141 56.4511 25.9677 56.3296 26.3667 56.2119ZM36.6809 62.8185L36.824 63.1714L37.0909 62.8998L38.5643 61.4005L38.6889 61.2737L38.6101 61.1144L36.8361 57.5265L41.0079 53.2813L44.641 54.9789L44.8012 55.0537L44.9251 54.9276L46.3986 53.4283L46.6655 53.1567L46.3101 53.0198C46.1022 52.9396 45.8845 52.8548 45.6571 52.7651C45.4301 52.6757 45.1764 52.5744 44.8959 52.4611C44.6121 52.3438 44.2941 52.2073 43.9416 52.0517C43.589 51.896 43.1828 51.7117 42.7226 51.4986L42.7216 51.4982L31.7648 46.4817L31.6053 46.4087L31.4824 46.5338L29.9371 48.1062L29.8142 48.2313L29.89 48.3895L35.096 59.2553C35.0962 59.2556 35.0963 59.2559 35.0965 59.2562C35.3129 59.7177 35.5022 60.1238 35.6645 60.4746C35.8264 60.8247 35.9685 61.1406 36.0909 61.4226L36.0909 61.4226L36.0922 61.4254C36.2147 61.6982 36.3222 61.9463 36.4149 62.17C36.5085 62.3959 36.5972 62.612 36.6809 62.8185ZM49.5069 47.1378L48.0722 48.5978L46.6368 50.2982L46.4584 50.4733C46.4584 50.4734 46.4584 50.4734 46.4585 50.4734C46.9969 51.0215 47.3762 51.4562 47.6042 51.7804L47.7767 52.0259L47.987 51.8119L54.2041 45.4853L54.3793 45.307L54.201 45.1318L52.8845 43.8381L52.674 43.6312L52.5045 43.8728C52.3914 44.0342 52.2391 44.2272 52.0461 44.4524C51.8524 44.6784 51.6273 44.9316 51.3707 45.2121C51.1083 45.4889 50.822 45.7899 50.5118 46.1152L50.5113 46.1158L50.5095 46.1177L50.5076 46.1195L50.5058 46.1214L50.5039 46.1233L50.502 46.1252L50.5002 46.1271L50.4983 46.129L50.4965 46.1309L50.4946 46.1328L50.4928 46.1347L50.4909 46.1365L50.489 46.1384L50.4872 46.1403L50.4853 46.1422L50.4835 46.1441L50.4816 46.146L50.4797 46.1479L50.4779 46.1498L50.476 46.1517L50.4742 46.1536L50.4723 46.1555L50.4704 46.1574L50.4686 46.1593L50.4667 46.1612L50.4648 46.1631L50.463 46.165L50.4611 46.1669L50.4592 46.1688L50.4574 46.1707L50.4555 46.1726L50.4536 46.1745L50.4518 46.1764L50.4499 46.1783L50.448 46.1802L50.4462 46.1821L50.4443 46.184L50.4424 46.1859L50.4406 46.1878L50.4387 46.1897L50.4368 46.1916L50.435 46.1935L50.4331 46.1954L50.4312 46.1973L50.4293 46.1992L50.4275 46.2011L50.4256 46.203L50.4237 46.2049L50.4218 46.2068L50.42 46.2087L50.4181 46.2106L50.4162 46.2125L50.4143 46.2144L50.4125 46.2164L50.4106 46.2183L50.4087 46.2202L50.4068 46.2221L50.405 46.224L50.4031 46.2259L50.4012 46.2278L50.3993 46.2297L50.3974 46.2316L50.3956 46.2336L50.3937 46.2355L50.3918 46.2374L50.3899 46.2393L50.388 46.2412L50.3862 46.2431L50.3843 46.2451L50.3824 46.247L50.3805 46.2489L50.3786 46.2508L50.3767 46.2527L50.3748 46.2546L50.373 46.2566L50.3711 46.2585L50.3692 46.2604L50.3673 46.2623L50.3654 46.2642L50.3635 46.2662L50.3616 46.2681L50.3598 46.27L50.3579 46.2719L50.356 46.2738L50.3541 46.2758L50.3522 46.2777L50.3503 46.2796L50.3484 46.2815L50.3465 46.2835L50.3446 46.2854L50.3427 46.2873L50.3408 46.2892L50.3389 46.2912L50.3371 46.2931L50.3352 46.295L50.3333 46.297L50.3314 46.2989L50.3295 46.3008L50.3276 46.3027L50.3257 46.3047L50.3238 46.3066L50.3219 46.3085L50.32 46.3105L50.3181 46.3124L50.3162 46.3143L50.3143 46.3163L50.3124 46.3182L50.3105 46.3201L50.3086 46.3221L50.3067 46.324L50.3048 46.3259L50.3029 46.3279L50.301 46.3298L50.2991 46.3317L50.2972 46.3337L50.2953 46.3356L50.2934 46.3376L50.2915 46.3395L50.2896 46.3414L50.2877 46.3434L50.2857 46.3453L50.2838 46.3473L50.2819 46.3492L50.28 46.3511L50.2781 46.3531L50.2762 46.355L50.2743 46.357L50.2724 46.3589L50.2705 46.3608L50.2686 46.3628L50.2667 46.3647L50.2648 46.3667L50.2628 46.3686L50.2609 46.3706L50.259 46.3725L50.2571 46.3745L50.2552 46.3764L50.2533 46.3783L50.2514 46.3803L50.2495 46.3822L50.2475 46.3842L50.2456 46.3861L50.2437 46.3881L50.2418 46.39L50.2399 46.392L50.238 46.3939L50.236 46.3959L50.2341 46.3978L50.2322 46.3998L50.2303 46.4017L50.2284 46.4037L50.2264 46.4057L50.2245 46.4076L50.2226 46.4096L50.2207 46.4115L50.2188 46.4135L50.2168 46.4154L50.2149 46.4174L50.213 46.4193L50.2111 46.4213L50.2092 46.4233L50.2072 46.4252L50.2053 46.4272L50.2034 46.4291L50.2015 46.4311L50.1995 46.433L50.1976 46.435L50.1957 46.437L50.1938 46.4389L50.1918 46.4409L50.1899 46.4429L50.188 46.4448L50.186 46.4468L50.1841 46.4487L50.1822 46.4507L50.1803 46.4527L50.1783 46.4546L50.1764 46.4566L50.1745 46.4586L50.1725 46.4605L50.1706 46.4625L50.1687 46.4645L50.1667 46.4664L50.1648 46.4684L50.1629 46.4704L50.1609 46.4723L50.159 46.4743L50.1571 46.4763L50.1551 46.4782L50.1532 46.4802L50.1512 46.4822L50.1493 46.4842L50.1474 46.4861L50.1454 46.4881L50.1435 46.4901L50.1416 46.492L50.1396 46.494L50.1377 46.496L50.1357 46.498L50.1338 46.4999L50.1319 46.5019L50.1299 46.5039L50.128 46.5059L50.126 46.5078L50.1241 46.5098L50.1221 46.5118L50.1202 46.5138L50.1183 46.5157L50.1163 46.5177L50.1144 46.5197L50.1124 46.5217L50.1105 46.5237L50.1085 46.5256L50.1066 46.5276L50.1046 46.5296L50.1027 46.5316L50.1007 46.5336L50.0988 46.5356L50.0968 46.5375L50.0949 46.5395L50.0929 46.5415L50.091 46.5435L50.089 46.5455L50.0871 46.5475L50.0851 46.5494L50.0832 46.5514L50.0812 46.5534L50.0793 46.5554L50.0773 46.5574L50.0754 46.5594L50.0734 46.5614L50.0715 46.5634L50.0695 46.5654L50.0676 46.5673L50.0656 46.5693L50.0636 46.5713L50.0617 46.5733L50.0597 46.5753L50.0578 46.5773L50.0558 46.5793L50.0539 46.5813L50.0519 46.5833L50.0499 46.5853L50.048 46.5873L50.046 46.5893L50.0441 46.5913L50.0421 46.5932L50.0401 46.5952L50.0382 46.5972L50.0362 46.5992L50.0342 46.6012L50.0323 46.6032L50.0303 46.6052L50.0284 46.6072L50.0264 46.6092L50.0244 46.6112L50.0225 46.6132L50.0205 46.6152L50.0185 46.6172L50.0166 46.6192L50.0146 46.6212L50.0126 46.6232L50.0107 46.6252L50.0087 46.6272L50.0067 46.6292L50.0048 46.6313L50.0028 46.6333L50.0008 46.6353L49.9988 46.6373L49.9969 46.6393L49.9949 46.6413L49.9929 46.6433L49.991 46.6453L49.989 46.6473L49.987 46.6493L49.985 46.6513L49.9831 46.6533L49.9811 46.6553L49.9791 46.6573L49.9771 46.6594L49.9752 46.6614L49.9732 46.6634L49.9712 46.6654L49.9692 46.6674L49.9673 46.6694L49.9653 46.6714L49.9633 46.6734L49.9613 46.6755L49.9593 46.6775L49.9574 46.6795L49.9554 46.6815L49.9534 46.6835L49.9514 46.6855L49.9494 46.6875L49.9474 46.6896L49.9455 46.6916L49.9435 46.6936L49.9415 46.6956L49.9395 46.6976L49.9375 46.6997L49.9355 46.7017L49.9336 46.7037L49.9316 46.7057L49.9296 46.7077L49.9276 46.7098L49.9256 46.7118L49.9236 46.7138L49.9216 46.7158L49.9197 46.7179L49.9177 46.7199L49.9157 46.7219L49.9137 46.7239L49.9117 46.7259L49.9097 46.728L49.9077 46.73L49.9057 46.732L49.9037 46.7341L49.9017 46.7361L49.8997 46.7381L49.8978 46.7401L49.8958 46.7422L49.8938 46.7442L49.8918 46.7462L49.8898 46.7483L49.8878 46.7503L49.8858 46.7523L49.8838 46.7543L49.8818 46.7564L49.8798 46.7584L49.8778 46.7604L49.8758 46.7625L49.8738 46.7645L49.8718 46.7665L49.8698 46.7686L49.8678 46.7706L49.8658 46.7727L49.8638 46.7747L49.8618 46.7767L49.8598 46.7788L49.8578 46.7808L49.8558 46.7828L49.8538 46.7849L49.8518 46.7869L49.8498 46.7889L49.8478 46.791L49.8458 46.793L49.8438 46.7951L49.8418 46.7971L49.8398 46.7992L49.8378 46.8012L49.8357 46.8032L49.8337 46.8053L49.8317 46.8073L49.8297 46.8094L49.8277 46.8114L49.8257 46.8135L49.8237 46.8155L49.8217 46.8175L49.8197 46.8196L49.8177 46.8216L49.8157 46.8237L49.8136 46.8257L49.8116 46.8278L49.8096 46.8298L49.8076 46.8319L49.8056 46.8339L49.8036 46.836L49.8016 46.838L49.7996 46.8401L49.7975 46.8421L49.7955 46.8442L49.7935 46.8462L49.7915 46.8483L49.7895 46.8503L49.7875 46.8524L49.7854 46.8544L49.7834 46.8565L49.7814 46.8585L49.7794 46.8606L49.7774 46.8627L49.7753 46.8647L49.7733 46.8668L49.7713 46.8688L49.7693 46.8709L49.7673 46.8729L49.7652 46.875L49.7632 46.877L49.7612 46.8791L49.7592 46.8812L49.7571 46.8832L49.7551 46.8853L49.7531 46.8873L49.7511 46.8894L49.749 46.8915L49.747 46.8935L49.745 46.8956L49.743 46.8977L49.7409 46.8997L49.7389 46.9018L49.7369 46.9038L49.7348 46.9059L49.7328 46.908L49.7308 46.91L49.7288 46.9121L49.7267 46.9142L49.7247 46.9162L49.7227 46.9183L49.7206 46.9204L49.7186 46.9224L49.7166 46.9245L49.7145 46.9266L49.7125 46.9286L49.7105 46.9307L49.7084 46.9328L49.7064 46.9349L49.7044 46.9369L49.7023 46.939L49.7003 46.9411L49.6983 46.9431L49.6962 46.9452L49.6942 46.9473L49.6921 46.9494L49.6901 46.9514L49.6881 46.9535L49.686 46.9556L49.684 46.9577L49.682 46.9597L49.6799 46.9618L49.6779 46.9639L49.6758 46.966L49.6738 46.968L49.6717 46.9701L49.6697 46.9722L49.6677 46.9743L49.6656 46.9764L49.6636 46.9784L49.6615 46.9805L49.6595 46.9826L49.6574 46.9847L49.6554 46.9868L49.6533 46.9889L49.6513 46.9909L49.6492 46.993L49.6472 46.9951L49.6452 46.9972L49.6431 46.9993L49.6411 47.0014L49.639 47.0034L49.637 47.0055L49.6349 47.0076L49.6329 47.0097L49.6308 47.0118L49.6288 47.0139L49.6267 47.016L49.6246 47.018L49.6226 47.0201L49.6205 47.0222L49.6185 47.0243L49.6164 47.0264L49.6144 47.0285L49.6123 47.0306L49.6103 47.0327L49.6082 47.0348L49.6062 47.0369L49.6041 47.039L49.602 47.0411L49.6 47.0431L49.5979 47.0452L49.5959 47.0473L49.5938 47.0494L49.5918 47.0515L49.5897 47.0536L49.5876 47.0557L49.5856 47.0578L49.5835 47.0599L49.5814 47.062L49.5794 47.0641L49.5773 47.0662L49.5753 47.0683L49.5732 47.0704L49.5711 47.0725L49.5691 47.0746L49.567 47.0767L49.5649 47.0788L49.5629 47.0809L49.5608 47.083L49.5587 47.0851L49.5567 47.0872L49.5546 47.0893L49.5525 47.0914L49.5505 47.0935L49.5484 47.0956L49.5463 47.0977L49.5443 47.0998L49.5422 47.102L49.5401 47.1041L49.5381 47.1062L49.536 47.1083L49.5339 47.1104L49.5318 47.1125L49.5298 47.1146L49.5277 47.1167L49.5256 47.1188L49.5235 47.1209L49.5215 47.123L49.5194 47.1252L49.5173 47.1273L49.5152 47.1294L49.5132 47.1315L49.5111 47.1336L49.509 47.1357L49.5069 47.1378ZM55.1362 31.8176L54.9579 31.6424L54.7827 31.8207L50.8611 35.8114L47.9264 32.9275L52.3871 28.3883L52.5623 28.21L52.384 28.0348L51.1772 26.8489L50.9989 26.6736L50.8237 26.8519L44.7144 33.0688L44.5041 33.2828L44.7525 33.451C45.0806 33.6733 45.5242 34.0472 46.0867 34.5809C46.6459 35.1114 47.2859 35.7307 48.0068 36.4391L52.3221 40.6797C53.0429 41.3881 53.6758 42.0196 54.2208 42.5743C54.7592 43.1225 55.1385 43.5571 55.3665 43.8814L55.5391 44.1268L55.7494 43.9128L62.0743 37.4766L62.2495 37.2983L62.0712 37.123L60.7547 35.8293L60.5407 35.619L60.3724 35.8674C60.1494 36.1967 59.8057 36.6092 59.3356 37.1069C58.8629 37.6074 58.2701 38.2204 57.5568 38.9462L55.8346 40.6988L52.3879 37.3118L56.3095 33.3212L56.4848 33.1429L56.3064 32.9676L55.1362 31.8176ZM32.8375 49.445L39.006 52.3374L35.8558 55.543L32.8375 49.445Z" fill="white" stroke="white" stroke-width="0.5"/>
</svg>
