<svg width="120" height="120" viewBox="0 0 120 120" fill="none" xmlns="http://www.w3.org/2000/svg">
<g clip-path="url(#clip0_73007_885)">
<path d="M119.272 45.6193C118.773 46.5533 118.848 47.6171 118.627 48.6141C116.047 60.2461 109.31 68.3143 98.4141 72.8186C97.4586 73.2111 97.2794 73.5091 97.7467 74.485C99.3009 77.731 100.717 81.0442 102.241 84.3056C102.786 85.4736 102.672 86.3895 101.623 87.1518C100.095 87.3527 99.6836 87.1093 98.9809 85.5598C93.724 73.9791 88.4669 62.3983 83.2095 50.8175C81.173 46.3406 79.0983 41.8819 77.0427 37.4136C76.8893 36.9753 76.7094 36.5469 76.5042 36.1309C75.8962 35.0537 74.7616 35.0338 74.118 36.0762C73.9678 36.347 73.8348 36.6271 73.7196 36.9149C64.4715 57.2819 55.2148 77.6446 45.9495 98.003C45.5097 98.9672 45.706 99.6144 46.2931 100.302C47.2062 101.309 48.3142 102.116 49.5483 102.671C53.707 104.711 58.1566 105.746 62.6925 106.403C69.8984 107.431 77.2007 107.574 84.4403 106.827C87.5356 106.517 90.6219 106.118 93.621 105.226C95.9757 104.809 98.1955 103.959 100.374 103.006C101.803 102.425 103.101 101.558 104.191 100.457C104.88 99.7283 105.198 98.9798 104.643 97.9579C103.998 96.772 103.522 95.4937 102.93 94.2765C102.391 93.1687 102.445 92.1964 103.404 91.3544C104.966 91.0907 105.423 91.3354 106.103 92.8222C106.668 94.0556 107.218 95.296 107.777 96.5317C108.919 99.0536 108.611 100.847 106.687 102.869C104.856 104.792 102.564 105.954 100.153 106.914C95.1338 108.91 89.8697 109.793 84.5422 110.336C77.2195 111.097 69.8326 110.955 62.5437 109.914C57.6682 109.211 52.8511 108.211 48.3771 105.988C46.2862 104.95 44.3238 103.727 43.0314 101.687C42.0638 100.16 41.8041 98.6206 42.6513 96.8508C44.675 92.6224 46.5598 88.3254 48.4996 84.0562C48.6238 83.7829 48.7205 83.4967 48.924 82.9755C48.4168 83.2573 48.1035 83.4237 47.7975 83.6024C43.5705 86.068 39.3336 88.5146 35.1292 91.0178C34.7189 91.3011 34.2338 91.453 33.7371 91.4538C33.2404 91.4546 32.7549 91.3042 32.3437 91.0222C22.3411 85.154 12.3275 79.3049 2.30288 73.4748C1.36541 72.9299 0.942123 72.249 0.94444 71.1369C0.969145 59.4463 0.967604 47.7557 0.93981 36.0653C0.936336 34.8598 1.36455 34.1282 2.38251 33.5367C12.3766 27.7308 22.3572 21.9015 32.3243 16.0485C33.3587 15.4409 34.199 15.4977 35.2077 16.0928C42.144 20.1835 49.1145 24.215 56.0469 28.3122C56.9224 28.8299 57.2684 28.8155 57.784 27.8308C64.2088 15.542 74.336 9.37557 88.0648 9.46171C92.8914 9.491 97.4743 10.8284 101.77 13.0966C103.18 13.841 103.412 14.3373 103.053 15.8944C102.262 16.756 101.355 16.8524 100.343 16.3295C99.8985 16.0998 99.4422 15.8927 98.9885 15.6814C92.9839 12.8064 86.1715 12.1594 79.7431 13.8536C65.304 17.5271 55.8827 31.9743 58.2707 46.6846C58.7507 49.8748 59.7649 52.9589 61.2696 55.8041C61.5408 55.251 61.7502 54.8502 61.9372 54.4386C64.8757 47.9737 67.8122 41.5077 70.7468 35.0405C71.6414 33.07 73.0919 31.8422 75.2923 31.8357C77.4926 31.8293 78.9567 33.0281 79.8508 35.0095C80.5213 36.4952 81.1958 37.979 81.8743 39.4608C85.4493 47.2972 89.0249 55.1331 92.601 62.9686C93.5185 65.0223 94.4766 67.0591 95.3333 69.1383C95.6711 69.9586 96.0301 70.0049 96.802 69.7266C108.195 65.618 116.121 54.0015 115.789 41.7671C115.636 36.1324 114.224 30.8724 110.992 26.1978C110.082 24.5059 108.813 23.095 107.504 21.7263C106.65 20.8318 106.344 19.9239 107.067 18.8209C108.428 18.0656 108.912 18.1471 109.977 19.2562C114.996 24.4009 118.183 31.0881 119.035 38.2658C119.061 38.4709 118.957 38.7504 119.276 38.8371L119.272 45.6193ZM11.1151 40.2214C10.0603 41.3347 9.53689 41.4158 8.1909 40.6471C6.97317 39.9516 5.76384 39.2408 4.46707 38.4879C4.44536 38.8456 4.42768 39 4.42768 39.1544C4.42768 49.3626 4.43695 59.5708 4.40481 69.779C4.4025 70.5539 4.75571 70.8548 5.32549 71.1852C13.8583 76.1505 22.3854 81.1258 30.9068 86.1111C31.9595 86.7264 31.9688 86.7214 31.969 85.5053C31.9711 75.5305 31.9589 65.5561 31.9908 55.5817C31.9934 54.7526 31.6966 54.3557 31.0177 53.9642C25.9065 51.0173 20.8265 48.017 15.7211 45.058C14.6632 44.4451 14.061 43.6863 14.4643 42.4019C15.5138 41.2526 16.0317 41.1776 17.4701 42.0152C22.6309 45.0205 27.7871 48.0336 32.9387 51.0545C33.498 51.3838 33.899 51.4268 34.4862 51.0806C40.8923 47.3042 47.3135 43.5537 53.7498 39.8291C54.02 39.6957 54.2502 39.492 54.4167 39.2387C54.5833 38.9855 54.6801 38.692 54.6974 38.3883C54.85 36.6837 55.1833 35.0007 55.6916 33.3683C55.9522 32.5822 55.7866 32.163 55.0315 31.7276C48.1918 27.7784 41.3722 23.7935 34.5727 19.773C33.8958 19.3734 33.4358 19.4543 32.8046 19.8249C24.2664 24.8403 15.7192 29.8403 7.16308 34.8249C6.86922 34.9969 6.58608 35.1879 6.21405 35.4228C7.52558 36.1951 8.73288 36.9428 9.9729 37.6245C11.0392 38.209 11.4729 39.0234 11.1151 40.2214ZM35.4395 70.6412C35.4395 75.5506 35.4395 80.4599 35.4395 85.3693C35.4395 86.7577 35.4442 86.7609 36.595 86.0889C41.2587 83.3642 45.9136 80.627 50.5931 77.9314C51.2282 77.5762 51.7267 77.0152 52.0086 76.3386C54.3326 71.1697 56.663 66.0035 59.042 60.8602C59.2158 60.5468 59.298 60.19 59.2792 59.8312C59.2604 59.4724 59.1413 59.1264 58.9357 58.8334C56.3443 54.5265 54.8427 49.6393 54.5639 44.6048C54.5034 43.4915 54.1563 43.6087 53.4157 44.0432C47.6957 47.4053 41.9657 50.7502 36.2256 54.0779C35.6037 54.4377 35.4173 54.8572 35.4216 55.5624C35.4537 60.5886 35.4395 65.615 35.4395 70.6412Z" fill="#030303"/>
<path d="M92.597 62.9698C89.0212 55.1341 85.4456 47.2981 81.8702 39.462C81.1937 37.9794 80.5192 36.4956 79.8467 35.0106C78.9527 33.0293 77.4848 31.8305 75.2882 31.8369C73.0916 31.8434 71.6385 33.0712 70.7427 35.0417C67.807 41.5085 64.8704 47.9745 61.9331 54.4397C61.7461 54.8499 61.5368 55.2521 61.2655 55.8053C59.7608 52.96 58.7467 49.876 58.2666 46.6857C55.8786 31.9755 65.3 17.5283 79.739 13.8548C86.1674 12.1606 92.9799 12.8076 98.9844 15.6826C99.4381 15.8938 99.8944 16.101 100.339 16.3307C101.352 16.8536 102.258 16.7572 103.049 15.8956C104.494 16.7203 105.738 17.8292 107.062 18.8218C106.339 19.9251 106.644 20.833 107.499 21.7274C108.807 23.0962 110.076 24.5071 110.987 26.199C110.718 26.3584 110.826 26.567 110.875 26.8031C111.731 30.7045 111.912 34.7262 111.411 38.69C110.879 42.4545 109.665 46.0871 107.829 49.4051C106.098 52.5722 103.824 55.402 101.112 57.762C98.6041 59.9988 95.7201 61.7627 92.597 62.9698Z" fill="#DBA3F5"/>
<path d="M103.402 91.3541C102.443 92.1952 102.389 93.1685 102.928 94.2762C103.52 95.4935 103.996 96.7717 104.641 97.9576C105.196 98.9795 104.877 99.728 104.188 100.457C103.099 101.557 101.801 102.424 100.372 103.005C98.1929 103.959 95.9734 104.809 93.6187 105.225C92.8441 102.151 92.0701 99.0759 91.2967 96.0009C88.9518 86.6161 86.6095 77.2309 84.2697 67.8451C81.8297 58.0457 79.3957 48.2448 76.9677 38.4425C76.8835 38.1027 76.5358 37.7192 77.0416 37.4133C79.0986 41.8808 81.173 46.3403 83.2084 50.8172C88.4742 62.3938 93.7314 73.9745 98.9798 85.5595C99.6833 87.109 100.094 87.3524 101.622 87.1515C102.17 88.5724 103.018 89.8629 103.402 91.3541Z" fill="#C054F2"/>
<path d="M77.0416 37.4136C76.5358 37.7194 76.8835 38.1029 76.9677 38.4428C79.3972 48.2449 81.8312 58.0458 84.2698 67.8454C86.6074 77.2319 88.9497 86.6172 91.2967 96.0012C92.0655 99.0774 92.8395 102.152 93.6187 105.226C90.6196 106.118 87.5333 106.517 84.438 106.827C77.1984 107.574 69.8961 107.431 62.6902 106.403C58.1555 105.746 53.7058 104.711 49.5459 102.671C48.3119 102.116 47.2039 101.309 46.2908 100.302C45.7037 99.6158 45.5074 98.9672 45.9472 98.003C55.2304 77.6527 64.4875 57.2897 73.7184 36.9141C73.8336 36.6263 73.9667 36.3461 74.1168 36.0753C74.7604 35.0329 75.8956 35.0528 76.5031 36.1301C76.7083 36.5464 76.8882 36.975 77.0416 37.4136Z" fill="#DBA3F5"/>
<path d="M14.4648 42.4025C14.0615 43.6869 14.6637 44.4457 15.7217 45.0586C20.8262 48.0176 25.907 51.0184 31.0183 53.9648C31.6972 54.3562 31.9939 54.7532 31.9913 55.5823C31.9595 65.5567 31.9717 75.5311 31.9696 85.5058C31.9696 86.7219 31.9601 86.7263 30.9074 86.1117C22.3815 81.1345 13.8544 76.1593 5.32607 71.1858C4.75629 70.8542 4.40308 70.5533 4.40539 69.7796C4.43753 59.5714 4.42681 49.3632 4.42826 39.155C4.42826 39.0006 4.44591 38.8462 4.46763 38.4885C5.7644 39.2411 6.97373 39.9533 8.19146 40.6476C9.53687 41.4164 10.0603 41.3344 11.1156 40.222C12.0418 41.2471 13.3988 41.596 14.4648 42.4025Z" fill="#DBA3F5"/>
<path d="M14.4648 42.4025C13.3988 41.596 12.0418 41.2471 11.1151 40.2214C11.4729 39.0231 11.0392 38.209 9.97348 37.6239C8.7323 36.9422 7.52614 36.1945 6.21461 35.4223C6.58664 35.1879 6.8698 34.9963 7.16366 34.8243C15.7127 29.828 24.2598 24.828 32.8052 19.8243C33.4363 19.4537 33.8964 19.3729 34.5733 19.7725C41.3751 23.7885 48.1947 27.7733 55.0321 31.7271C55.7872 32.163 55.9522 32.5822 55.6922 33.3677C55.1839 35.0001 54.8506 36.6831 54.698 38.3877C54.6807 38.6914 54.5839 38.9849 54.4173 39.2382C54.2508 39.4914 54.0206 39.6952 53.7504 39.8285C47.3137 43.5522 40.8925 47.3026 34.4867 51.08C33.8996 51.4263 33.4986 51.3832 32.9392 51.0539C27.7935 48.0227 22.6373 45.0096 17.4707 42.0147C16.0323 41.1782 15.5144 41.2532 14.4648 42.4025Z" fill="#E1C2F2"/>
<path d="M35.4396 70.6412C35.4396 65.615 35.4537 60.5886 35.4233 55.5624C35.419 54.8572 35.6055 54.4377 36.2273 54.0779C41.9691 50.7535 47.6992 47.4086 53.4174 44.0432C54.158 43.6075 54.5052 43.4918 54.5657 44.6048C54.8444 49.6393 56.346 54.5265 58.9375 58.8334C59.143 59.1264 59.2622 59.4724 59.281 59.8312C59.2998 60.19 59.2175 60.5468 59.0437 60.8602C56.6647 66.0035 54.3343 71.1697 52.0103 76.3386C51.7285 77.0152 51.2299 77.5762 50.5949 77.9314C45.9153 80.6267 41.2604 83.3657 36.5968 86.0889C35.4459 86.7609 35.4416 86.7577 35.4413 85.3693C35.4395 80.4599 35.439 75.5506 35.4396 70.6412Z" fill="#C054F2"/>
<path d="M92.597 62.9698C95.7196 61.7625 98.6031 59.9987 101.111 57.762C103.822 55.402 106.097 52.5722 107.828 49.4051C109.664 46.0873 110.879 42.4546 111.411 38.69C111.912 34.7262 111.731 30.7045 110.876 26.8031C110.826 26.567 110.718 26.3584 110.987 26.199C114.219 30.8736 115.631 36.1336 115.784 41.7683C116.116 54.0026 108.191 65.6191 96.7974 69.7277C96.0255 70.0061 95.6665 69.9595 95.3286 69.1394C94.4725 67.0605 93.5145 65.0235 92.597 62.9698Z" fill="#C054F2"/>
</g>
<defs>
<clipPath id="clip0_73007_885">
<rect width="118.588" height="120" fill="white" transform="translate(0.705879)"/>
</clipPath>
</defs>
</svg>
