<svg width="90" height="91" viewBox="0 0 90 91" fill="none" xmlns="http://www.w3.org/2000/svg">
<line y1="44.8628" x2="90.0001" y2="44.8628" stroke="white" stroke-width="5"/>
<path d="M44.2929 35.2689C44.6834 35.6594 45.3166 35.6594 45.7071 35.2689L52.0711 28.905C52.4616 28.5144 52.4616 27.8813 52.0711 27.4907C51.6805 27.1002 51.0474 27.1002 50.6569 27.4907L45 33.1476L39.3431 27.4907C38.9526 27.1002 38.3195 27.1002 37.9289 27.4907C37.5384 27.8813 37.5384 28.5144 37.9289 28.905L44.2929 35.2689ZM44 0.0800781L44 34.5618L46 34.5618L46 0.0800782L44 0.0800781Z" fill="#E5E7FA"/>
<path d="M45.7071 54.8912C45.3166 54.5007 44.6834 54.5007 44.2929 54.8912L37.9289 61.2552C37.5384 61.6457 37.5384 62.2789 37.9289 62.6694C38.3195 63.0599 38.9526 63.0599 39.3431 62.6694L45 57.0126L50.6569 62.6694C51.0474 63.0599 51.6805 63.0599 52.0711 62.6694C52.4616 62.2789 52.4616 61.6457 52.0711 61.2552L45.7071 54.8912ZM46 90.0801L46 55.5983L44 55.5983L44 90.0801L46 90.0801Z" fill="#E5E7FA"/>
</svg>
