<svg width="81" height="81" viewBox="0 0 81 81" fill="none" xmlns="http://www.w3.org/2000/svg">
<line y1="39.7917" x2="80.5001" y2="39.7917" stroke="#BE52F2" stroke-width="5"/>
<path d="M39.543 31.5491C39.9335 31.9396 40.5666 31.9396 40.9572 31.5491L47.3211 25.1851C47.7117 24.7946 47.7117 24.1614 47.3211 23.7709C46.9306 23.3804 46.2974 23.3804 45.9069 23.7709L40.2501 29.4278L34.5932 23.7709C34.2027 23.3804 33.5695 23.3804 33.179 23.7709C32.7885 24.1614 32.7885 24.7946 33.179 25.1851L39.543 31.5491ZM39.2501 -4.37114e-08L39.2501 30.842L41.2501 30.842L41.2501 4.37114e-08L39.2501 -4.37114e-08Z" fill="#A5AFFB"/>
<path d="M40.9572 48.9509C40.5666 48.5604 39.9335 48.5604 39.543 48.9509L33.179 55.3149C32.7885 55.7054 32.7885 56.3386 33.179 56.7291C33.5695 57.1196 34.2027 57.1196 34.5932 56.7291L40.2501 51.0722L45.9069 56.7291C46.2974 57.1196 46.9306 57.1196 47.3211 56.7291C47.7117 56.3386 47.7117 55.7054 47.3211 55.3149L40.9572 48.9509ZM41.2501 80.5L41.2501 49.658L39.2501 49.658L39.2501 80.5L41.2501 80.5Z" fill="#A5AFFB"/>
</svg>
