<svg width="120" height="120" viewBox="0 0 120 120" fill="none" xmlns="http://www.w3.org/2000/svg">
<path d="M61.64 119.977H57.89C57.7962 119.61 57.4469 119.699 57.2169 119.637C54.5154 118.911 52.1718 117.224 50.6259 114.892C48.185 111.389 44.5378 110.433 40.6641 112.221C33.1062 115.709 25.1697 111.131 24.4287 102.856C24.0491 98.6138 21.3869 95.9531 17.1434 95.5691C12.7972 95.1756 9.54405 93.1031 7.63936 89.1513C6.04749 85.8481 6.24531 82.5244 7.81656 79.2272C9.32093 76.0709 8.91873 72.4822 6.34311 70.4459C3.46123 68.1691 1.04906 65.7094 0.0209351 62.1072V57.8916C0.41281 57.7619 0.322814 57.3703 0.395939 57.1066C1.11071 54.487 2.74715 52.2136 5.00436 50.7044C8.62936 48.1678 9.58811 44.5794 7.74436 40.5759C4.30249 33.1037 8.88561 25.1884 17.0909 24.4341C21.414 24.0366 24.0259 21.4147 24.4347 17.0903C24.8644 12.5528 27.1059 9.25876 31.3075 7.43719C34.5006 6.05251 37.6706 6.33969 40.7937 7.82812C43.9475 9.33125 47.5009 8.92188 49.5562 6.32813C51.835 3.45313 54.2922 1.04687 57.89 0.0209351H61.64C61.6778 0.0834351 61.7091 0.193444 61.755 0.200006C65.0494 0.668756 67.5 2.42625 69.3725 5.11313C71.7972 8.59219 75.4731 9.55937 79.3412 7.77437C86.8531 4.30562 94.7409 8.80563 95.56 17.0259C96.0041 21.4784 98.5287 24.0041 102.972 24.4375C111.132 25.2341 115.683 33.1281 112.262 40.55C110.411 44.5669 111.359 48.17 114.983 50.6906C117.097 52.127 118.679 54.219 119.485 56.6438C119.653 57.1363 119.556 57.7178 119.978 58.1241V62.1069C119.61 62.1988 119.699 62.5497 119.637 62.7797C118.913 65.4818 117.225 67.8258 114.893 69.3703C111.39 71.8047 110.432 75.4547 112.221 79.3306C115.707 86.8897 111.137 94.8169 102.858 95.5678C98.6115 95.9531 95.9522 98.6084 95.5694 102.849C94.8194 111.133 86.8972 115.708 79.34 112.222C75.465 110.434 71.8003 111.391 69.3763 114.884C67.8283 117.213 65.4894 118.903 62.7919 119.642C62.4112 119.75 61.9153 119.516 61.64 119.977ZM98.7231 92.855L98.7175 92.8747C100.084 92.4175 101.5 92.126 102.936 92.0066C103.834 91.9472 104.713 91.7162 105.523 91.3259C107.31 90.4907 108.702 88.9932 109.404 87.1503C110.107 85.3074 110.065 83.2635 109.287 81.4509C108.581 79.7922 107.873 78.1444 107.831 76.3175C107.741 72.3344 109.266 69.1038 112.51 66.76C113.927 65.7363 115.172 64.6109 115.855 62.9547C116.545 61.3647 116.662 59.5851 116.187 57.9186C115.711 56.252 114.674 54.8016 113.25 53.8141C111.019 52.2375 109.269 50.3428 108.397 47.7081C107.414 44.7359 107.766 41.8991 109.053 39.0816C111.412 33.9197 108.546 28.7206 102.938 27.9991C101.51 27.8287 100.099 27.5349 98.7222 27.1209L98.7266 27.1397L98.4247 26.9813C96.9294 26.2343 95.6098 25.1782 94.5533 23.8829C93.4968 22.5876 92.7275 21.0827 92.2962 19.4678C92.1525 18.3503 92.0666 17.2216 91.8547 16.1172C90.9625 11.4644 85.6672 8.74219 81.4797 10.7569C81.3261 10.7805 81.1756 10.821 81.0309 10.8775C75.5181 13.7391 69.4103 11.5697 66.234 6.86625C63.1206 2.25625 56.9216 2.43812 53.5962 7.0225C49.9216 12.0891 44.7756 13.4756 39.0812 10.9328C33.7237 8.54031 28.4319 11.6747 27.9287 17.5381C27.4337 23.3047 23.3097 27.4506 17.5997 27.9219C11.659 28.4122 8.52937 33.6978 10.9634 39.1303C13.4728 44.7319 12.0609 49.9684 7.07343 53.5578C2.3375 56.9663 2.34094 63.0306 7.08062 66.4434C12.0625 70.0344 13.4687 75.2603 10.9578 80.875C8.53031 86.305 11.6697 91.5938 17.6081 92.0769C23.2575 92.5369 27.4722 96.7366 27.9206 102.351C27.9833 103.601 28.3122 104.824 28.8853 105.938C30.8431 109.519 35.1144 110.892 38.979 109.105C41.0819 108.133 43.2341 107.584 45.5506 107.901C48.9484 108.367 51.5766 110.058 53.5344 112.875C55.5944 115.841 58.5584 117.012 61.855 116.219C63.9778 115.709 65.4384 114.336 66.6987 112.599C69.48 108.767 73.2781 107.286 77.9516 108.032C79.1972 108.232 80.29 108.869 81.4753 109.24C85.6665 111.25 90.96 108.53 91.8503 103.882C92.0622 102.777 92.1475 101.649 92.2909 100.531C92.7203 98.9152 93.4889 97.4091 94.5456 96.1132C95.6023 94.8172 96.9228 93.7612 98.4194 93.0153L98.7231 92.855Z" fill="#040203"/>
<path d="M98.4228 93.0156C96.9263 93.7615 95.6057 94.8176 94.549 96.1135C93.4923 97.4094 92.7238 98.9155 92.2944 100.532C88.9845 103.784 85.3612 106.701 81.4772 109.24C80.2919 108.869 79.1991 108.232 77.9534 108.033C73.28 107.285 69.4816 108.767 66.7006 112.599C65.4397 114.337 63.9791 115.709 61.8569 116.219C58.5603 117.012 55.5962 115.841 53.5362 112.876C51.5784 110.057 48.9503 108.367 45.5525 107.902C43.2359 107.584 41.0837 108.133 38.9809 109.105C35.115 110.892 30.8437 109.519 28.8872 105.938C28.3144 104.824 27.9858 103.602 27.9234 102.351C27.474 96.7372 23.2594 92.5387 17.6109 92.0775C11.6734 91.5937 8.5331 86.3056 10.9606 80.8756C13.4703 75.2609 12.0656 70.035 7.08155 66.4462C2.34187 63.0334 2.33842 56.969 7.07436 53.5606C12.0619 49.9712 13.4737 44.7347 10.9644 39.1331C8.5303 33.7006 11.66 28.4144 17.6006 27.9247C23.3106 27.4534 27.4347 23.3075 27.9297 17.5409C28.4328 11.6775 33.7247 8.54311 39.0822 10.9356C44.7766 13.4784 49.9225 12.0919 53.5972 7.0253C56.9225 2.4403 63.1216 2.25842 66.235 6.86905C69.4113 11.5725 75.5191 13.7419 81.0319 10.8803C81.1766 10.8238 81.3271 10.7833 81.4806 10.7597C85.4228 13.2453 88.9359 16.2634 92.2972 19.4706C92.7284 21.0855 93.4977 22.5904 94.5543 23.8857C95.6108 25.181 96.9303 26.2371 98.4256 26.9841L98.7275 27.1425L98.7228 27.1241C98.6977 27.2378 98.6992 27.3558 98.727 27.469C98.7548 27.5821 98.8082 27.6873 98.8831 27.7766C100.607 30.4135 102.129 33.1767 103.437 36.0428C106.339 42.2912 108.039 49.0307 108.445 55.9084C109.28 67.5842 106.568 79.2399 100.664 89.3475C99.9944 90.5078 99.0447 91.5237 98.7203 92.8759L98.7256 92.8562L98.4228 93.0156ZM87.3066 29.6456C87.9912 28.3644 87.8928 27.7097 86.7394 26.8262C74.5238 17.4703 61.0241 14.854 46.3791 19.6775C18.3331 28.9147 8.20155 63.8837 26.8284 86.7506C27.7391 87.8684 28.2837 87.9837 29.67 87.3528C30.755 88.4688 31.8396 89.5848 32.9237 90.7006C32.3747 92.1334 32.4772 92.6003 33.6831 93.5131C44.0075 101.342 55.5691 104.294 68.2925 101.759C87.1988 97.9931 100.846 82.5694 102.441 63.3731C103.356 52.3578 100.24 42.489 93.5516 33.7253C92.6231 32.5084 92.1766 32.4128 90.7391 32.9787C89.5987 31.8656 88.5872 30.6172 87.3066 29.6456Z" fill="#DBA3F5"/>
<path d="M98.7188 92.875C99.0431 91.5228 99.9928 90.5069 100.662 89.3466C106.566 79.2394 109.278 67.5843 108.443 55.9091C108.037 49.0313 106.338 42.2918 103.435 36.0434C102.127 33.1774 100.605 30.4141 98.8816 27.7772C98.8066 27.688 98.7532 27.5827 98.7254 27.4696C98.6976 27.3565 98.6962 27.2385 98.7212 27.1247C100.099 27.5376 101.509 27.8304 102.938 28C108.545 28.7216 111.412 33.9206 109.053 39.0825C107.766 41.9 107.414 44.7369 108.397 47.7091C109.269 50.3438 111.018 52.2384 113.249 53.815C114.673 54.8026 115.711 56.253 116.186 57.9195C116.661 59.5861 116.544 61.3657 115.855 62.9556C115.171 64.6119 113.926 65.7369 112.509 66.7609C109.266 69.1047 107.741 72.3353 107.831 76.3184C107.872 78.1453 108.581 79.7931 109.287 81.4519C110.064 83.2644 110.106 85.3083 109.404 87.1512C108.701 88.9942 107.31 90.4916 105.523 91.3269C104.712 91.7171 103.834 91.9482 102.936 92.0075C101.501 92.1269 100.085 92.4181 98.7188 92.875Z" fill="#C054F2"/>
<path d="M81.4772 109.24C85.3612 106.701 88.9845 103.784 92.2944 100.532C92.151 101.649 92.0656 102.777 91.8538 103.882C90.9619 108.531 85.6685 111.25 81.4772 109.24Z" fill="#C054F2"/>
<path d="M92.2944 19.4688C88.9331 16.2616 85.4194 13.2434 81.4778 10.7578C85.6653 8.7425 90.9606 11.4653 91.8528 16.1181C92.0647 17.2231 92.1506 18.3519 92.2944 19.4688Z" fill="#C054F2"/>
<path d="M98.7247 27.1413L98.4228 26.9828L98.7247 27.1413Z" fill="#F8357F"/>
<path d="M98.4228 93.0156L98.7228 92.855L98.4228 93.0156Z" fill="#F8357F"/>
<path d="M32.925 90.7003L29.67 87.3528C30.5172 86.3194 30.2653 85.4069 29.4909 84.4216C18.8347 70.8663 17.8144 52.7438 27.4119 38.5506C36.0941 25.7116 48.4431 19.9184 63.98 21.1513C64.0634 21.6372 64.48 21.6922 64.8415 21.8209C70.2184 23.7294 74.8103 26.8834 78.9128 30.7813C82.7679 34.4974 85.8217 38.9632 87.8862 43.9038C89.9781 48.6476 91.0928 53.7643 91.1637 58.9485C91.2078 61.3582 91.0592 63.7677 90.7194 66.1538C90.1039 70.3135 88.834 74.3497 86.9569 78.1125C84.4719 83.0657 81.2165 87.435 76.9256 91.0057C73.9296 93.5537 70.596 95.6756 67.0194 97.3113C65.9881 97.771 64.7928 97.9478 63.9812 98.8519C63.0884 98.9319 62.1969 99.0631 61.3025 99.0835C51.8812 99.2974 43.425 96.5417 35.9337 90.8163C34.6325 89.82 34.215 89.8057 32.925 90.7003ZM62.5484 75.2431C62.5289 76.5982 62.7783 77.9436 63.2822 79.2016C64.7912 83.0244 67.3687 85.6632 71.6281 86.0722C75.5078 86.4447 78.3828 84.6147 80.4315 81.4319C83.0253 77.4034 82.865 71.8909 80.114 67.9844C76.2156 62.4472 68.7541 62.3772 64.7916 67.8544C63.2606 69.9688 62.535 72.3569 62.5484 75.2431ZM57.4547 45.2288C57.4581 42.1916 56.6 39.5784 54.7359 37.3306C51.0578 32.8931 44.8609 32.6828 40.8853 36.846C36.8075 41.1172 36.6587 48.4422 40.5603 52.8753C44.5941 57.4588 51.0406 57.3278 54.8728 52.5675C56.5495 50.4896 57.4613 47.8987 57.4556 45.2288H57.4547ZM71.2672 37.7725C71.1797 36.8597 70.8169 36.2588 70.0247 35.9872C69.6743 35.8524 69.2881 35.8431 68.9317 35.9608C68.5753 36.0785 68.2706 36.3159 68.0694 36.6328C67.856 36.9581 67.6823 37.3078 67.5522 37.6744C63.4745 47.3894 59.3991 57.1053 55.3259 66.8222C53.4318 71.3403 51.5408 75.8597 49.6531 80.3803C49.0281 81.8819 49.7562 83.22 51.1444 83.1697C52.155 83.1331 52.6072 82.431 52.9584 81.5932C58.9395 67.3223 64.9236 53.0521 70.9109 38.7825C71.0594 38.4272 71.1678 38.055 71.2665 37.7725H71.2672Z" fill="#F2F6F6"/>
<path d="M63.9803 98.8519C64.7928 97.9478 65.9884 97.7709 67.0184 97.3112C70.5951 95.6756 73.9287 93.5536 76.9247 91.0056C81.2172 87.435 84.4725 83.0656 86.956 78.1125C88.8331 74.3497 90.1029 70.3135 90.7184 66.1538C91.0583 63.7677 91.2069 61.3582 91.1628 58.9484C91.0919 53.7643 89.9772 48.6476 87.8853 43.9037C85.8208 38.9632 82.767 34.4974 78.9119 30.7812C74.8106 26.8834 70.2175 23.7294 64.8406 21.8209C64.4784 21.6922 64.0625 21.6372 63.9791 21.1512C64.2114 21.1438 64.4439 21.1492 64.6756 21.1675C71.8955 22.0477 78.7284 24.918 84.411 29.4578C85.6547 30.4481 86.0885 30.4684 87.3057 29.6453C88.5869 30.6169 89.5978 31.8641 90.74 32.9794C89.865 34.2041 89.8813 34.7031 90.8616 35.9834C97.2969 44.3881 100.049 53.8859 98.8282 64.3775C97.4547 76.1762 91.7172 85.505 81.9813 92.2941C76.6669 96.0343 70.4552 98.2972 63.9803 98.8519Z" fill="#E3EAEF"/>
<path d="M87.3065 29.6456C86.0894 30.4684 85.6556 30.4481 84.4119 29.4581C78.7293 24.9183 71.8964 22.048 64.6766 21.1678C64.4449 21.1496 64.2123 21.1441 63.98 21.1516C48.4441 19.9187 36.0941 25.7119 27.4119 38.5509C17.8144 52.7441 18.8347 70.8666 29.4909 84.4219C30.2653 85.4072 30.5172 86.3197 29.67 87.3531C28.2837 87.9841 27.7391 87.8687 26.8284 86.7509C8.20156 63.8841 18.3331 28.915 46.3791 19.6778C61.0241 14.8544 74.5238 17.4706 86.7394 26.8266C87.8928 27.7097 87.9912 28.3637 87.3065 29.6456Z" fill="#040303"/>
<path d="M63.9803 98.8519C70.4555 98.2975 76.6676 96.0346 81.9822 92.2944C91.7182 85.5053 97.4557 76.1765 98.8291 64.3778C100.05 53.8862 97.2978 44.3884 90.8625 35.9837C89.8822 34.7025 89.8659 34.2044 90.7409 32.9797C92.1766 32.4156 92.6231 32.5109 93.5516 33.7269C100.239 42.4906 103.356 52.3594 102.441 63.3747C100.847 82.5709 87.1997 97.9947 68.2925 101.761C55.5691 104.295 44.0075 101.343 33.6831 93.5147C32.4772 92.6003 32.3747 92.1334 32.9244 90.7022C34.215 89.8072 34.6325 89.8216 35.9328 90.8178C43.4185 96.5532 51.8747 99.309 61.3016 99.085C62.1959 99.0625 63.0875 98.9319 63.9803 98.8519Z" fill="#040303"/>
<path d="M62.5484 75.2431C62.535 72.3569 63.2606 69.97 64.7915 67.8544C68.754 62.3772 76.2156 62.4481 80.114 67.9844C82.864 71.8906 83.0247 77.4034 80.4315 81.4319C78.3828 84.6147 75.5078 86.4447 71.6281 86.0722C67.3687 85.6631 64.7912 83.0244 63.2822 79.2016C62.7783 77.9436 62.5289 76.5981 62.5484 75.2431ZM66.0637 75.0244C66.0288 76.9104 66.6422 78.7514 67.8012 80.2397C70.27 83.4184 74.5437 83.4078 77.0122 80.2347C79.3119 77.2784 79.3415 72.7453 77.0806 69.7737C74.6212 66.5409 70.4337 66.4494 67.874 69.5991C66.636 71.1304 65.9927 73.0573 66.0625 75.0253L66.0637 75.0244Z" fill="#040404"/>
<path d="M57.4556 45.2287C57.4615 47.8987 56.5499 50.4895 54.8734 52.5675C51.0428 57.3278 44.5963 57.4587 40.5609 52.8753C36.6594 48.4422 36.8081 41.1172 40.886 36.8459C44.861 32.6828 51.0584 32.8922 54.7366 37.3306C56.6009 39.5784 57.4591 42.1916 57.4556 45.2287ZM53.9353 45.0519C53.9831 43.1266 53.3605 41.2445 52.1741 39.7275C49.7644 36.6397 45.5981 36.5922 43.1116 39.6103C40.6844 42.5553 40.6094 47.23 42.9403 50.2528C45.4175 53.4656 49.6235 53.5291 52.15 50.3694C53.3506 48.8613 53.9826 46.9789 53.9353 45.0519Z" fill="#040404"/>
<path d="M71.2666 37.7725C71.1678 38.0538 71.0594 38.4272 70.9103 38.7825C64.9272 53.0525 58.943 67.3229 52.9578 81.5938C52.6066 82.4316 52.1544 83.1338 51.1438 83.1703C49.7556 83.2206 49.0288 81.8825 49.6525 80.3809C51.5321 75.857 53.423 71.3376 55.3253 66.8228C59.3991 57.1064 63.4745 47.3904 67.5516 37.675C67.6817 37.3084 67.8554 36.9587 68.0688 36.6334C68.27 36.3165 68.5747 36.0791 68.9311 35.9614C69.2875 35.8437 69.6737 35.853 70.0241 35.9878C70.8163 36.2588 71.1791 36.8597 71.2666 37.7725Z" fill="#040404"/>
<path d="M66.0644 75.0244C65.9944 73.0571 66.6374 71.1308 67.875 69.6C70.4347 66.4503 74.6222 66.5419 77.0816 69.7747C79.3425 72.7463 79.3128 77.2794 77.0131 80.2357C74.5444 83.4088 70.2719 83.4194 67.8022 80.2407C66.6425 78.7523 66.0291 76.9109 66.0644 75.0244Z" fill="#F1F5F5"/>
<path d="M53.9356 45.0531C53.9822 46.9799 53.3499 48.8617 52.1494 50.3694C49.6228 53.5291 45.4169 53.4656 42.9397 50.2528C40.6087 47.23 40.6837 42.5553 43.1109 39.6103C45.5981 36.5922 49.7644 36.6397 52.1734 39.7275C53.3602 41.2449 53.983 43.1274 53.9356 45.0531Z" fill="#F1F5F5"/>
</svg>
