<svg width="135" height="135" viewBox="0 0 135 135" fill="none" xmlns="http://www.w3.org/2000/svg">
<g filter="url(#filter0_d_73188_659)">
<path d="M29.6464 16.6464C29.4512 16.8417 29.4512 17.1583 29.6464 17.3536L32.8284 20.5355C33.0237 20.7308 33.3403 20.7308 33.5355 20.5355C33.7308 20.3403 33.7308 20.0237 33.5355 19.8284L30.7071 17L33.5355 14.1716C33.7308 13.9763 33.7308 13.6597 33.5355 13.4645C33.3403 13.2692 33.0237 13.2692 32.8284 13.4645L29.6464 16.6464ZM114.354 17.3536C114.549 17.1583 114.549 16.8417 114.354 16.6464L111.172 13.4645C110.976 13.2692 110.66 13.2692 110.464 13.4645C110.269 13.6597 110.269 13.9763 110.464 14.1716L113.293 17L110.464 19.8284C110.269 20.0237 110.269 20.3403 110.464 20.5355C110.66 20.7308 110.976 20.7308 111.172 20.5355L114.354 17.3536ZM30 17.5H114V16.5H30V17.5Z" fill="#E5E7FA"/>
<path d="M24.3536 22.6464C24.1583 22.4512 23.8417 22.4512 23.6464 22.6464L20.4645 25.8284C20.2692 26.0237 20.2692 26.3403 20.4645 26.5355C20.6597 26.7308 20.9763 26.7308 21.1716 26.5355L24 23.7071L26.8284 26.5355C27.0237 26.7308 27.3403 26.7308 27.5355 26.5355C27.7308 26.3403 27.7308 26.0237 27.5355 25.8284L24.3536 22.6464ZM23.6465 107.354C23.8417 107.549 24.1583 107.549 24.3536 107.354L27.5355 104.172C27.7308 103.976 27.7308 103.66 27.5355 103.464C27.3403 103.269 27.0237 103.269 26.8284 103.464L24 106.293L21.1716 103.464C20.9763 103.269 20.6597 103.269 20.4645 103.464C20.2692 103.66 20.2692 103.976 20.4645 104.172L23.6465 107.354ZM23.5 23L23.5 107L24.5 107L24.5 23L23.5 23Z" fill="#E5E7FA"/>
<rect x="35" y="28" width="78" height="78" rx="1" stroke="white" stroke-width="2" stroke-linejoin="round"/>
</g>
<defs>
<filter id="filter0_d_73188_659" x="0.317993" y="0.317993" width="134.182" height="134.182" filterUnits="userSpaceOnUse" color-interpolation-filters="sRGB">
<feFlood flood-opacity="0" result="BackgroundImageFix"/>
<feColorMatrix in="SourceAlpha" type="matrix" values="0 0 0 0 0 0 0 0 0 0 0 0 0 0 0 0 0 0 127 0" result="hardAlpha"/>
<feOffset dy="7"/>
<feGaussianBlur stdDeviation="10"/>
<feColorMatrix type="matrix" values="0 0 0 0 0 0 0 0 0 0 0 0 0 0 0 0 0 0 0.07 0"/>
<feBlend mode="normal" in2="BackgroundImageFix" result="effect1_dropShadow_73188_659"/>
<feBlend mode="normal" in="SourceGraphic" in2="effect1_dropShadow_73188_659" result="shape"/>
</filter>
</defs>
</svg>
