<svg width="106" height="92" viewBox="0 0 106 92" fill="none" xmlns="http://www.w3.org/2000/svg">
<path d="M102.298 2.0432L102.298 2.04325L96.7362 7.60401L96.5897 7.75041H96.3827H61.6664L17.9061 51.871L17.9044 51.8728C16.9979 52.7778 16.5 53.981 16.5 55.2616C16.5 56.5422 16.9979 57.7454 17.9044 58.6505L17.9046 58.6507L48.605 89.3511C49.5377 90.2838 50.7603 90.7498 51.9881 90.7498C53.2189 90.7498 54.4512 90.2805 55.3945 89.3384C55.3953 89.3376 55.396 89.3369 55.3968 89.3361L98.0038 45.578V9.3715V9.1644L98.1502 9.01795L103.711 3.45719C104.102 3.06601 104.102 2.43453 103.712 2.0432C103.712 2.04305 103.712 2.0429 103.712 2.04275M102.298 2.0432L101.945 1.68965C102.531 1.10312 103.48 1.10312 104.066 1.68965L103.712 2.04275M102.298 2.0432C102.69 1.65209 103.321 1.65194 103.712 2.04275M102.298 2.0432L103.712 2.04275M95.8634 44.9119L96.0051 44.7663V44.5631V12.3716V11.1645L95.1516 12.0181L87.9018 19.2679L87.6128 19.5569L87.8385 19.8976C88.573 21.0064 89.0049 22.3286 89.0049 23.7512C89.0049 27.6107 85.8641 30.7515 82.0045 30.7515C78.145 30.7515 75.0042 27.6107 75.0042 23.7512C75.0042 19.8916 78.145 16.7508 82.0045 16.7508C83.4271 16.7508 84.7493 17.1827 85.8581 17.9172L86.1988 18.1429L86.4878 17.8539L93.7376 10.6041L94.5911 9.75054H93.384H62.7076H62.4993L62.3526 9.89844L19.3231 53.282C19.3229 53.2822 19.3227 53.2824 19.3225 53.2825C18.7917 53.8137 18.5001 54.5164 18.5001 55.2616C18.5001 56.0063 18.7914 56.7095 19.3186 57.2367L50.019 87.9371L50.0193 87.9374C51.1097 89.026 52.8814 89.0269 53.9696 87.9369L53.974 87.9324L95.8634 44.9119ZM84.2857 20.056L84.7854 19.5563L84.1478 19.2514C83.5029 18.943 82.7816 18.751 82.0045 18.751C79.2473 18.751 77.0043 20.9939 77.0043 23.7512C77.0043 26.5084 79.2473 28.7514 82.0045 28.7514C84.7618 28.7514 87.0047 26.5084 87.0047 23.7512C87.0047 22.9741 86.8127 22.2528 86.5043 21.6078L86.1994 20.9703L85.6997 21.47L82.7115 24.4582C82.5163 24.6534 82.261 24.7512 82.0045 24.7512C81.748 24.7512 81.4927 24.6534 81.2975 24.4582C80.9063 24.0669 80.9063 23.4354 81.2975 23.0442L84.2857 20.056Z" fill="white" stroke="white"/>
<path d="M72.6707 32.6163L72.3212 32.3366C69.7398 30.2709 66.4644 29.2557 63.1204 29.5388L63.1199 29.5389C60.8387 29.7298 58.7728 30.8302 57.2998 32.6452C55.7834 34.5151 55.0828 36.962 55.3824 39.3545L55.3825 39.3546L56.524 48.49L56.5543 48.7326L56.3814 48.9056L42.9603 62.3267L42.5522 62.7348L42.2064 62.2726C38.9852 57.9673 39.3169 51.8279 43.2282 47.915L43.2282 47.9149C43.6195 47.5237 43.6195 46.8922 43.2282 46.5009C42.837 46.1097 42.2055 46.1097 41.8143 46.5009C37.0915 51.2236 36.773 58.7054 40.8535 63.8043L41.1332 64.1538L40.8167 64.4703L39.1036 66.1833C38.7124 66.5746 38.7124 67.2061 39.1036 67.5973C39.2988 67.7925 39.5541 67.8904 39.8106 67.8904C40.0671 67.8904 40.3224 67.7925 40.5176 67.5973L42.2322 65.8828L42.5485 65.5665L42.8979 65.8457C45.1997 67.6851 48.0495 68.6944 51.0026 68.6944C51.3645 68.6944 51.7287 68.6786 52.0953 68.6482M72.6707 32.6163L52.1367 69.1464M72.6707 32.6163L72.9872 32.2998L74.1062 31.1807C74.4975 30.7895 75.129 30.7895 75.5202 31.1807C75.9115 31.572 75.9115 32.2035 75.5202 32.5947L74.3982 33.7168L74.0817 34.0332L74.3613 34.3827C78.4404 39.4816 78.1233 46.9634 73.4006 51.6876M72.6707 32.6163L74.7517 34.0703C78.9879 39.3656 78.6594 47.1344 73.7542 52.0412M52.0953 68.6482L52.1367 69.1464M52.0953 68.6482C52.0953 68.6482 52.0953 68.6482 52.0953 68.6482L52.1367 69.1464M52.0953 68.6482C54.3765 68.4586 56.4422 67.3596 57.9151 65.5434L57.9153 65.5432C59.4329 63.6734 60.1335 61.2251 59.8339 58.8326L59.8339 58.8325L58.6924 49.697L58.662 49.4544L58.835 49.2815L72.2561 35.8604L72.6643 35.4522L73.01 35.9145C76.2295 40.2197 75.8996 46.3607 71.9866 50.2736C71.5954 50.6649 71.5954 51.2963 71.9866 51.6876C72.3779 52.0789 73.0094 52.0789 73.4006 51.6876M52.1367 69.1464C54.5563 68.9454 56.7464 67.7784 58.3035 65.8583C59.907 63.8827 60.6466 61.2981 60.3301 58.7705L59.1885 49.635L72.2522 36.5713C72.238 36.552 72.2236 36.5327 72.2092 36.5134L72.6096 36.2139L72.9632 36.5675L72.9034 36.6273C75.6586 40.7095 75.2433 46.3098 71.6331 49.9201C71.0466 50.5066 71.0466 51.4546 71.6331 52.0412C72.2196 52.6277 73.1676 52.6277 73.7542 52.0412M73.4006 51.6876C73.4006 51.6876 73.4006 51.6876 73.4006 51.6877L73.7542 52.0412M73.4006 51.6876L73.7542 52.0412M56.3592 64.2847L56.3593 64.2846C57.537 62.8318 58.0785 60.9375 57.8455 59.0817L56.9935 52.2627L56.8668 51.2481L56.1438 51.9711L44.3743 63.7422L43.9657 64.1508L44.4288 64.4965C46.5703 66.0943 49.2256 66.8703 51.9238 66.6583L51.9263 66.6581C53.6636 66.5129 55.2379 65.6668 56.3592 64.2847ZM58.8497 33.9053L58.8496 33.9055C57.6733 35.3569 57.1319 37.2527 57.3648 39.1069L58.2168 45.9259L58.3436 46.9404L59.0665 46.2174L70.8376 34.4464L71.2461 34.0379L70.7832 33.6922C68.6424 32.0933 65.9852 31.3088 63.2848 31.5304L63.2836 31.5305C61.5468 31.6773 59.9711 32.5231 58.8497 33.9053Z" fill="white" stroke="white"/>
</svg>
