<svg width="120" height="120" viewBox="0 0 120 120" fill="none" xmlns="http://www.w3.org/2000/svg">
<mask id="path-1-inside-1_73007_1782" fill="white">
<path d="M0.0150146 23.2187C0.658452 21.98 1.66753 21.5022 3.06284 21.5597C4.89503 21.6353 6.73347 21.5478 8.56753 21.5941C9.24034 21.6113 9.40971 21.4025 9.3994 20.7503C9.36159 18.33 9.38065 15.9084 9.38565 13.4875C9.38971 11.6266 10.2069 10.6037 11.691 10.5812C13.2047 10.56 14.0697 11.6247 14.07 13.5381C14.0717 43.8794 14.0635 74.2205 14.0453 104.562C14.0453 105.645 14.2297 105.966 15.3981 105.965C49.1763 105.926 82.9544 105.909 116.733 105.912C118.174 105.912 119.286 106.247 119.978 107.566V109.206C119.125 110.396 117.951 110.659 116.534 110.643C110.799 110.584 105.062 110.631 99.3266 110.604C98.6372 110.6 98.3772 110.724 98.4038 111.484C98.4663 113.277 98.3669 115.076 98.4422 116.867C98.5019 118.277 98.0775 119.339 96.7822 119.982H95.1419C93.9544 119.124 93.6419 117.947 93.7166 116.529C93.8053 114.816 93.726 113.096 93.7447 111.379C93.75 110.892 93.7269 110.595 93.0825 110.604C90.3907 110.64 87.6975 110.632 85.005 110.608C84.4791 110.603 84.3319 110.777 84.3557 111.277C84.391 112.016 84.3785 112.759 84.3613 113.5C84.3247 115.072 83.4585 116.01 82.0522 116.024C80.6341 116.037 79.7332 115.111 79.6835 113.56C79.6481 112.858 79.6504 112.155 79.6903 111.453C79.7394 110.803 79.5419 110.586 78.8632 110.603C76.9913 110.65 75.1169 110.592 73.2444 110.63C72.2853 110.65 71.0475 110.199 70.4519 110.832C69.9975 111.315 70.3269 112.535 70.306 113.426C70.3035 113.543 70.306 113.661 70.2978 113.777C70.1853 115.16 69.2753 116.03 67.9491 116.023C66.6228 116.017 65.711 115.14 65.6335 113.75C65.5925 112.97 65.591 112.189 65.6291 111.409C65.655 110.842 65.5428 110.591 64.8791 110.601C62.2653 110.643 59.6508 110.643 57.0353 110.601C56.3135 110.588 56.2228 110.869 56.235 111.48C56.2703 113.275 56.1919 115.074 56.2663 116.864C56.3241 118.271 55.8994 119.335 54.6081 119.982H52.9688C51.7769 119.129 51.4688 117.951 51.5416 116.535C51.631 114.823 51.5532 113.104 51.5688 111.388C51.5728 110.914 51.5756 110.595 50.9175 110.604C48.2272 110.641 45.536 110.631 42.845 110.609C42.3394 110.604 42.1575 110.741 42.1803 111.262C42.2181 112.079 42.2206 112.901 42.1781 113.718C42.1025 115.163 41.1519 116.054 39.7763 116.024C38.4638 115.995 37.5763 115.101 37.5128 113.698C37.4735 112.958 37.4744 112.216 37.5153 111.476C37.5544 110.857 37.4266 110.589 36.7125 110.601C34.1003 110.646 31.4866 110.642 28.8741 110.601C28.2203 110.592 28.0928 110.827 28.121 111.407C28.1691 112.225 28.1647 113.045 28.1078 113.862C28.0995 114.166 28.0291 114.464 27.9011 114.74C27.7731 115.016 27.5901 115.262 27.3633 115.464C27.1366 115.667 26.8709 115.821 26.5826 115.916C26.2942 116.012 25.9893 116.048 25.6866 116.022C24.4225 115.981 23.5353 115.116 23.4588 113.783C23.4096 113.005 23.4096 112.224 23.4588 111.445C23.5047 110.784 23.2891 110.592 22.6235 110.601C20.0499 110.639 17.4761 110.639 14.9019 110.601C14.2456 110.592 14.0413 110.767 14.0582 111.436C14.1035 113.267 14.0188 115.103 14.0916 116.933C14.1472 118.324 13.675 119.337 12.4353 119.979H10.7953C9.60189 119.132 9.28503 117.96 9.36659 116.544C9.45597 114.993 9.32939 113.43 9.40783 111.877C9.45658 110.914 9.28285 110.511 8.1816 110.586C6.47753 110.701 4.75721 110.558 3.04877 110.634C1.65314 110.697 0.64722 110.216 0.0175323 108.967V107.561C0.665345 106.322 1.6844 105.856 3.07534 105.911C4.90565 105.984 6.74189 105.898 8.57533 105.945C9.25252 105.963 9.41722 105.745 9.40316 105.097C9.36222 103.187 9.39502 101.275 9.38565 99.3637C9.38159 98.4725 9.67721 97.3225 9.23689 96.7609C8.76814 96.1628 7.56347 96.6275 6.68347 96.5587C6.56691 96.5497 6.44908 96.5587 6.33252 96.5531C4.87595 96.4709 3.9694 95.5597 3.98034 94.1906C3.99127 92.8334 4.91064 91.9353 6.38283 91.8781C7.08399 91.8379 7.78696 91.8402 8.48784 91.885C9.17846 91.9422 9.42533 91.7703 9.40939 91.01C9.35471 88.4759 9.36534 85.9397 9.40409 83.405C9.4144 82.7203 9.29189 82.4075 8.52408 82.4844C7.7848 82.5411 7.04233 82.5426 6.30284 82.4887C4.85378 82.4162 3.95596 81.4759 3.98034 80.1022C4.00346 78.7944 4.90095 77.8912 6.29595 77.8237C7.07503 77.7787 7.85611 77.78 8.63503 77.8278C9.27034 77.8728 9.40814 77.6337 9.40127 77.0394C9.37148 74.4267 9.37212 71.8135 9.40316 69.2C9.41159 68.5719 9.21066 68.4187 8.61222 68.43C6.89691 68.4669 5.1769 68.3762 3.46503 68.4637C2.0469 68.5359 0.873452 68.2159 0.0190773 67.0284V65.3884C0.66439 64.155 1.67284 63.6797 3.06471 63.7378C4.89409 63.8137 6.73001 63.7281 8.56158 63.7715C9.21783 63.7869 9.42064 63.6084 9.40533 62.9387C9.35971 61.0681 9.41409 59.1956 9.37909 57.3247C9.36127 56.365 9.81284 55.0928 9.1869 54.5362C8.65721 54.0653 7.41189 54.3987 6.48314 54.3766C6.40533 54.3747 6.32689 54.3766 6.24939 54.3725C4.86908 54.2747 3.98565 53.3687 3.98127 52.0481C3.9769 50.7275 4.84815 49.7981 6.23127 49.7084C7.00954 49.6541 7.79061 49.6525 8.56909 49.7037C9.23784 49.7519 9.41909 49.5241 9.40409 48.8656C9.36097 46.9562 9.41378 45.0447 9.37815 43.1347C9.36096 42.2156 9.79908 40.995 9.18158 40.4637C8.66033 40.0153 7.47565 40.3387 6.5844 40.3191C6.46753 40.3166 6.35002 40.3222 6.23377 40.3134C4.85877 40.2106 3.97845 39.2956 3.98064 37.9734C3.98283 36.6584 4.86158 35.7322 6.2469 35.6484C7.02377 35.6016 7.80659 35.6122 8.58534 35.64C9.12503 35.6594 9.41971 35.6016 9.40753 34.9094C9.36127 32.2587 9.3719 29.6069 9.4019 26.9559C9.40846 26.3784 9.2219 26.2403 8.6744 26.2494C6.80315 26.2806 4.9291 26.2034 3.06034 26.2806C1.66566 26.3375 0.660027 25.8594 0.0194016 24.6212L0.0150146 23.2187Z"/>
</mask>
<path d="M0.0150146 23.2187C0.658452 21.98 1.66753 21.5022 3.06284 21.5597C4.89503 21.6353 6.73347 21.5478 8.56753 21.5941C9.24034 21.6113 9.40971 21.4025 9.3994 20.7503C9.36159 18.33 9.38065 15.9084 9.38565 13.4875C9.38971 11.6266 10.2069 10.6037 11.691 10.5812C13.2047 10.56 14.0697 11.6247 14.07 13.5381C14.0717 43.8794 14.0635 74.2205 14.0453 104.562C14.0453 105.645 14.2297 105.966 15.3981 105.965C49.1763 105.926 82.9544 105.909 116.733 105.912C118.174 105.912 119.286 106.247 119.978 107.566V109.206C119.125 110.396 117.951 110.659 116.534 110.643C110.799 110.584 105.062 110.631 99.3266 110.604C98.6372 110.6 98.3772 110.724 98.4038 111.484C98.4663 113.277 98.3669 115.076 98.4422 116.867C98.5019 118.277 98.0775 119.339 96.7822 119.982H95.1419C93.9544 119.124 93.6419 117.947 93.7166 116.529C93.8053 114.816 93.726 113.096 93.7447 111.379C93.75 110.892 93.7269 110.595 93.0825 110.604C90.3907 110.64 87.6975 110.632 85.005 110.608C84.4791 110.603 84.3319 110.777 84.3557 111.277C84.391 112.016 84.3785 112.759 84.3613 113.5C84.3247 115.072 83.4585 116.01 82.0522 116.024C80.6341 116.037 79.7332 115.111 79.6835 113.56C79.6481 112.858 79.6504 112.155 79.6903 111.453C79.7394 110.803 79.5419 110.586 78.8632 110.603C76.9913 110.65 75.1169 110.592 73.2444 110.63C72.2853 110.65 71.0475 110.199 70.4519 110.832C69.9975 111.315 70.3269 112.535 70.306 113.426C70.3035 113.543 70.306 113.661 70.2978 113.777C70.1853 115.16 69.2753 116.03 67.9491 116.023C66.6228 116.017 65.711 115.14 65.6335 113.75C65.5925 112.97 65.591 112.189 65.6291 111.409C65.655 110.842 65.5428 110.591 64.8791 110.601C62.2653 110.643 59.6508 110.643 57.0353 110.601C56.3135 110.588 56.2228 110.869 56.235 111.48C56.2703 113.275 56.1919 115.074 56.2663 116.864C56.3241 118.271 55.8994 119.335 54.6081 119.982H52.9688C51.7769 119.129 51.4688 117.951 51.5416 116.535C51.631 114.823 51.5532 113.104 51.5688 111.388C51.5728 110.914 51.5756 110.595 50.9175 110.604C48.2272 110.641 45.536 110.631 42.845 110.609C42.3394 110.604 42.1575 110.741 42.1803 111.262C42.2181 112.079 42.2206 112.901 42.1781 113.718C42.1025 115.163 41.1519 116.054 39.7763 116.024C38.4638 115.995 37.5763 115.101 37.5128 113.698C37.4735 112.958 37.4744 112.216 37.5153 111.476C37.5544 110.857 37.4266 110.589 36.7125 110.601C34.1003 110.646 31.4866 110.642 28.8741 110.601C28.2203 110.592 28.0928 110.827 28.121 111.407C28.1691 112.225 28.1647 113.045 28.1078 113.862C28.0995 114.166 28.0291 114.464 27.9011 114.74C27.7731 115.016 27.5901 115.262 27.3633 115.464C27.1366 115.667 26.8709 115.821 26.5826 115.916C26.2942 116.012 25.9893 116.048 25.6866 116.022C24.4225 115.981 23.5353 115.116 23.4588 113.783C23.4096 113.005 23.4096 112.224 23.4588 111.445C23.5047 110.784 23.2891 110.592 22.6235 110.601C20.0499 110.639 17.4761 110.639 14.9019 110.601C14.2456 110.592 14.0413 110.767 14.0582 111.436C14.1035 113.267 14.0188 115.103 14.0916 116.933C14.1472 118.324 13.675 119.337 12.4353 119.979H10.7953C9.60189 119.132 9.28503 117.96 9.36659 116.544C9.45597 114.993 9.32939 113.43 9.40783 111.877C9.45658 110.914 9.28285 110.511 8.1816 110.586C6.47753 110.701 4.75721 110.558 3.04877 110.634C1.65314 110.697 0.64722 110.216 0.0175323 108.967V107.561C0.665345 106.322 1.6844 105.856 3.07534 105.911C4.90565 105.984 6.74189 105.898 8.57533 105.945C9.25252 105.963 9.41722 105.745 9.40316 105.097C9.36222 103.187 9.39502 101.275 9.38565 99.3637C9.38159 98.4725 9.67721 97.3225 9.23689 96.7609C8.76814 96.1628 7.56347 96.6275 6.68347 96.5587C6.56691 96.5497 6.44908 96.5587 6.33252 96.5531C4.87595 96.4709 3.9694 95.5597 3.98034 94.1906C3.99127 92.8334 4.91064 91.9353 6.38283 91.8781C7.08399 91.8379 7.78696 91.8402 8.48784 91.885C9.17846 91.9422 9.42533 91.7703 9.40939 91.01C9.35471 88.4759 9.36534 85.9397 9.40409 83.405C9.4144 82.7203 9.29189 82.4075 8.52408 82.4844C7.7848 82.5411 7.04233 82.5426 6.30284 82.4887C4.85378 82.4162 3.95596 81.4759 3.98034 80.1022C4.00346 78.7944 4.90095 77.8912 6.29595 77.8237C7.07503 77.7787 7.85611 77.78 8.63503 77.8278C9.27034 77.8728 9.40814 77.6337 9.40127 77.0394C9.37148 74.4267 9.37212 71.8135 9.40316 69.2C9.41159 68.5719 9.21066 68.4187 8.61222 68.43C6.89691 68.4669 5.1769 68.3762 3.46503 68.4637C2.0469 68.5359 0.873452 68.2159 0.0190773 67.0284V65.3884C0.66439 64.155 1.67284 63.6797 3.06471 63.7378C4.89409 63.8137 6.73001 63.7281 8.56158 63.7715C9.21783 63.7869 9.42064 63.6084 9.40533 62.9387C9.35971 61.0681 9.41409 59.1956 9.37909 57.3247C9.36127 56.365 9.81284 55.0928 9.1869 54.5362C8.65721 54.0653 7.41189 54.3987 6.48314 54.3766C6.40533 54.3747 6.32689 54.3766 6.24939 54.3725C4.86908 54.2747 3.98565 53.3687 3.98127 52.0481C3.9769 50.7275 4.84815 49.7981 6.23127 49.7084C7.00954 49.6541 7.79061 49.6525 8.56909 49.7037C9.23784 49.7519 9.41909 49.5241 9.40409 48.8656C9.36097 46.9562 9.41378 45.0447 9.37815 43.1347C9.36096 42.2156 9.79908 40.995 9.18158 40.4637C8.66033 40.0153 7.47565 40.3387 6.5844 40.3191C6.46753 40.3166 6.35002 40.3222 6.23377 40.3134C4.85877 40.2106 3.97845 39.2956 3.98064 37.9734C3.98283 36.6584 4.86158 35.7322 6.2469 35.6484C7.02377 35.6016 7.80659 35.6122 8.58534 35.64C9.12503 35.6594 9.41971 35.6016 9.40753 34.9094C9.36127 32.2587 9.3719 29.6069 9.4019 26.9559C9.40846 26.3784 9.2219 26.2403 8.6744 26.2494C6.80315 26.2806 4.9291 26.2034 3.06034 26.2806C1.66566 26.3375 0.660027 25.8594 0.0194016 24.6212L0.0150146 23.2187Z" fill="#010101" stroke="white" stroke-width="0.6" mask="url(#path-1-inside-1_73007_1782)"/>
<path d="M10.1872 0.586248L10.2931 0.692484C10.3254 0.660289 10.3694 0.632509 10.4291 0.601888C10.4466 0.592889 10.4683 0.582366 10.4919 0.570969C10.5357 0.549723 10.5858 0.525443 10.6268 0.502349C10.6966 0.462998 10.7724 0.410951 10.8325 0.333623C10.8687 0.286949 10.8971 0.233952 10.9161 0.17379L12.3891 0.174355C13.0074 0.574147 13.4313 0.986006 13.6739 1.41382C13.9187 1.8456 13.9836 2.3016 13.8668 2.79814L13.8668 2.79818C13.7479 3.30425 13.5294 3.70774 13.2198 3.99817C12.911 4.28788 12.5025 4.47351 11.988 4.52995L11.988 4.52968L11.979 4.53121C11.5251 4.60905 11.0582 4.52979 10.6555 4.30653C10.2527 4.08326 9.93803 3.72933 9.7635 3.30315L9.76362 3.30311L9.76105 3.2975C9.53354 2.8011 9.47929 2.3419 9.57106 1.91563C9.66311 1.48804 9.90509 1.07988 10.2932 0.692397L10.1872 0.586248ZM10.1872 0.586248C10.255 0.518678 10.3451 0.475194 10.435 0.431768C10.6051 0.349671 10.7747 0.267781 10.7925 0.0237427L9.62469 3.36C9.14688 2.3175 9.38094 1.39125 10.1872 0.586248Z" fill="#070707" stroke="white" stroke-width="0.3"/>
<path d="M63.13 23.9653C63.1298 24.6008 63.2565 25.23 63.5027 25.8159C63.7489 26.4021 64.1097 26.9332 64.5639 27.378C65.0181 27.8229 65.5565 28.1725 66.1477 28.4065C66.7382 28.6403 67.3695 28.7539 68.0045 28.7406C68.6396 28.7423 69.2687 28.6175 69.855 28.3734C70.4419 28.129 70.9741 27.7701 71.4206 27.3175C71.867 26.865 72.2187 26.3279 72.4551 25.7377C72.6914 25.1478 72.8077 24.5167 72.7972 23.8812M63.13 23.9653C63.119 22.6836 63.6176 21.45 64.516 20.5358C65.4146 19.6214 66.6396 19.1015 67.9215 19.0903C69.2035 19.0792 70.4373 19.5777 71.3517 20.4763C72.2659 21.3747 72.7859 22.5995 72.7972 23.8812M63.13 23.9653C63.13 23.9651 63.13 23.9649 63.13 23.9646L63.2799 23.9647L63.13 23.966C63.13 23.9658 63.13 23.9655 63.13 23.9653ZM72.7972 23.8812C72.7972 23.8814 72.7972 23.8816 72.7972 23.8818L72.6473 23.8831L72.7972 23.8806C72.7972 23.8808 72.7972 23.881 72.7972 23.8812ZM68.6021 33.1594L68.5625 33.14L68.5186 33.1451C68.3034 33.17 68.0859 33.1682 67.8711 33.1397C67.0182 32.8707 66.4107 32.9847 65.9369 33.3639C65.4781 33.7312 65.165 34.3341 64.8552 34.9777C62.9027 39.0322 60.8716 43.0491 58.8399 47.0672C58.5005 47.7384 58.1611 48.4097 57.822 49.0811C57.6776 49.3671 57.5616 49.6379 57.5653 49.9165C57.5691 50.2055 57.6999 50.4753 57.9817 50.766C58.5755 51.3783 58.587 52.1949 58.1921 53.0019C57.7994 53.8046 57.1559 54.2731 56.2915 54.2104L56.2914 54.2104C55.883 54.1809 55.5741 54.2565 55.3248 54.4388C55.0812 54.6169 54.9121 54.8846 54.7559 55.1996L54.7559 55.1996C51.9561 60.8489 49.1359 66.4881 46.2955 72.1174C46.1273 72.4504 46.0358 72.7414 46.0739 73.0326C46.1122 73.3249 46.277 73.5878 46.5517 73.8747L46.5517 73.8747C49.4882 76.9393 49.8753 81.4614 47.577 85.1253L47.5766 85.1259C46.5044 86.8529 44.8815 88.1683 42.9699 88.8599C41.0583 89.5514 38.9695 89.5788 37.0405 88.9377L37.0394 88.9373C32.9639 87.6151 30.4049 83.8344 30.6401 79.4762C30.855 75.5085 34.0021 71.9657 38.0283 71.1316C38.9626 70.938 39.8921 70.7781 40.7404 71.0046L40.7407 71.0047C41.2375 71.1362 41.5917 71.094 41.8678 70.8932C42.1291 70.7031 42.2943 70.3859 42.4601 70.0513C44.9493 65.0322 47.4557 60.0216 49.9792 55.0194L49.9793 55.0194C50.124 54.7323 50.2277 54.4707 50.2197 54.1955C50.2116 53.9151 50.0892 53.6465 49.8415 53.3393L49.8405 53.338C49.5898 53.0339 49.4296 52.6655 49.3779 52.2748C49.3262 51.8841 49.3852 51.4868 49.5482 51.1279C49.7111 50.7691 49.9715 50.4632 50.2997 50.245C50.6279 50.0268 51.0107 49.9051 51.4047 49.8937L51.4061 49.8936C51.8744 49.8757 52.22 49.7733 52.4977 49.5642C52.7721 49.3576 52.9635 49.059 53.148 48.6851C55.9033 43.1023 58.6888 37.5354 61.5044 31.9844L61.5045 31.9842C61.6662 31.6641 61.7691 31.3775 61.742 31.0862C61.7145 30.7906 61.5566 30.5202 61.2687 30.2228L61.2686 30.2227C58.4773 27.3457 57.9675 23.2045 59.8777 19.5796L59.8782 19.5787C60.7416 17.9138 62.0997 16.5574 63.7657 15.6959C65.4316 14.8345 67.3236 14.5104 69.1813 14.7683L69.1817 14.7683C71.0966 15.0279 72.8807 15.8855 74.2793 17.2189C75.6779 18.5524 76.6197 20.2934 76.9703 22.1938L76.9705 22.1947C77.569 25.3328 76.7746 28.0509 74.5593 30.3327L74.5592 30.3328C74.332 30.5673 74.1903 30.7845 74.1573 31.0313C74.1244 31.2768 74.2033 31.5213 74.3436 31.7994L74.3436 31.7994C77.2357 37.5301 80.1054 43.2718 82.9528 49.0243C83.1015 49.3249 83.268 49.5495 83.4965 49.6912C83.7262 49.8337 83.9983 49.88 84.3326 49.8652L84.3326 49.8652L84.336 49.865C84.7573 49.8366 85.1767 49.9426 85.5339 50.1678C85.8911 50.3929 86.1677 50.7256 86.3238 51.1179L86.3235 51.118L86.3273 51.1262C86.5283 51.5548 86.6065 51.9745 86.5574 52.3648C86.5085 52.7538 86.3321 53.1234 86.0072 53.4528C85.7723 53.6903 85.6597 53.9135 85.6562 54.1559C85.6529 54.3871 85.7508 54.6099 85.8656 54.8388L85.8656 54.8389C88.4674 60.0185 91.0578 65.2038 93.6366 70.3948C93.7551 70.6335 93.8823 70.8318 94.0801 70.9501C94.2812 71.0703 94.5276 71.0921 94.8474 71.0473L94.8476 71.0472C99.8568 70.3377 104.46 73.8532 105.241 78.9409C105.985 83.7883 102.482 88.427 97.3969 89.2946C92.6047 90.1125 87.9772 86.7575 87.0553 81.792C86.4795 78.6923 87.3013 76.0179 89.4709 73.7631C89.6894 73.5361 89.8383 73.3254 89.8812 73.083C89.9244 72.8384 89.8548 72.592 89.7102 72.3055L89.5885 72.367L89.7102 72.3055C86.7985 66.5402 83.9088 60.7637 81.0413 54.9759L81.0412 54.9758C80.9172 54.7258 80.7805 54.5204 80.5861 54.3866C80.3872 54.2496 80.1478 54.2008 79.8461 54.2226L79.8461 54.2224L79.8393 54.2232C79.4011 54.2748 78.958 54.1823 78.577 53.9598C78.196 53.7372 77.8978 53.3966 77.7274 52.9896L77.7243 52.982L77.7203 52.9748C77.5065 52.5889 77.4267 52.1429 77.4934 51.7068C77.5601 51.2707 77.7695 50.8689 78.0888 50.5645L78.0889 50.5646L78.0926 50.5608C78.2767 50.3724 78.3841 50.1913 78.4015 49.9857C78.4184 49.7856 78.3468 49.5908 78.2428 49.3836L78.2428 49.3836L78.182 49.2627C75.5629 44.0507 72.9438 38.8389 70.3734 33.6036C70.2377 33.3262 70.0757 33.156 69.8865 33.0715C69.6982 32.9873 69.5082 32.9996 69.3418 33.0342C69.2586 33.0515 69.1772 33.0753 69.1025 33.0979C69.0921 33.101 69.082 33.1041 69.0719 33.1071C69.0073 33.1266 68.9486 33.1444 68.8914 33.1584C68.7565 33.1912 68.6684 33.192 68.6021 33.1594ZM96.1255 75.3284L96.124 75.3284C94.8489 75.3265 93.6248 75.8288 92.7185 76.7257C91.8123 77.6226 91.2974 78.8414 91.2861 80.1165C91.2747 81.3915 91.7679 82.6193 92.6581 83.5321C93.5483 84.445 94.7633 84.9689 96.0382 84.9897L96.0393 84.9897C97.3201 85.0012 98.5532 84.5037 99.4674 83.6065C100.382 82.7092 100.902 81.4858 100.915 80.2049L100.765 80.2034L100.915 80.2043C100.922 78.9238 100.423 77.6922 99.5258 76.7786C98.6284 75.865 97.406 75.3437 96.1255 75.3284ZM37.9628 84.6172C38.5502 84.8586 39.18 84.9802 39.815 84.9747L44.5269 80.189C44.5305 79.5741 44.4129 78.9645 44.1808 78.395C43.9488 77.8254 43.6069 77.3072 43.1745 76.8698C42.7422 76.4325 42.228 76.0845 41.6612 75.8459C41.0945 75.6073 40.4862 75.4826 39.8713 75.4791C39.2563 75.4755 38.6467 75.5931 38.0772 75.8251C37.5076 76.0571 36.9894 76.3991 36.5521 76.8314C36.1147 77.2637 35.7668 77.7779 35.5281 78.3447C35.2895 78.9115 35.1648 79.5197 35.1613 80.1347L35.0113 80.1322C35.0113 80.1324 35.0113 80.1327 35.0113 80.133C35.0008 80.7685 35.1176 81.3997 35.3548 81.9893C35.5921 82.5793 35.9451 83.1157 36.393 83.567C36.8409 84.0184 37.3747 84.3754 37.9628 84.6172Z" fill="#020202" stroke="white" stroke-width="0.3"/>
<path d="M25.7384 54.2294H25.7381C25.4958 54.2294 25.2552 54.2323 25.0156 54.2353C24.4767 54.2419 23.9432 54.2484 23.4086 54.2211L23.4086 54.221L23.403 54.2209C22.8331 54.2131 22.2889 53.9821 21.8875 53.5774C21.4861 53.1727 21.2595 52.6267 21.2563 52.0567C21.2531 51.4867 21.4737 50.9383 21.8705 50.5291C22.2674 50.12 22.8089 49.8829 23.3787 49.8687L23.3787 49.8687L23.3809 49.8686C24.9705 49.8063 26.5686 49.8091 28.1606 49.8658L28.1606 49.866L28.1676 49.8659C28.451 49.8629 28.7322 49.9168 28.9945 50.0245C29.2567 50.1322 29.4947 50.2914 29.6942 50.4929C29.8937 50.6943 30.0507 50.9337 30.1559 51.197C30.2611 51.4602 30.3124 51.7419 30.3066 52.0254L30.3065 52.0254L30.3066 52.0294C30.3104 52.6591 30.0881 53.1916 29.702 53.5734C29.3153 53.9558 28.7551 54.196 28.0686 54.2223L28.0678 54.2223C27.5206 54.2463 26.9738 54.2405 26.4221 54.2346C26.1952 54.2322 25.9673 54.2297 25.7384 54.2294Z" fill="#030303" stroke="white" stroke-width="0.3"/>
<path d="M39.7705 54.2278H39.7703C39.5255 54.2278 39.2826 54.2312 39.041 54.2346C38.5041 54.2422 37.9735 54.2497 37.4417 54.2193L37.4417 54.2191L37.4344 54.2191C37.1512 54.2168 36.8713 54.1581 36.6111 54.0465C36.3509 53.9348 36.1155 53.7724 35.9187 53.5688C35.722 53.3652 35.5678 53.1244 35.4651 52.8605C35.3625 52.5966 35.3134 52.3148 35.3209 52.0318L35.3211 52.0318L35.3209 52.0241C35.307 51.4705 35.5129 50.9341 35.8935 50.5319C36.2742 50.1298 36.7986 49.8949 37.352 49.8784L37.352 49.8784L37.354 49.8783C39.0218 49.806 40.6975 49.8029 42.3639 49.8817L42.3639 49.8817L42.3654 49.8818C42.6396 49.8919 42.9091 49.9561 43.1584 50.0707C43.4077 50.1854 43.6318 50.3483 43.8179 50.5499C44.004 50.7516 44.1483 50.988 44.2426 51.2457C44.3369 51.5034 44.3793 51.7772 44.3674 52.0513L44.3671 52.0513L44.3672 52.0596C44.3706 52.3428 44.3177 52.6238 44.2115 52.8862C44.1052 53.1487 43.9479 53.3875 43.7485 53.5885C43.5491 53.7896 43.3117 53.949 43.0502 54.0575C42.7886 54.166 42.5081 54.2213 42.2249 54.2203L42.2249 54.2201L42.2167 54.2205C41.6541 54.2494 41.0927 54.242 40.5258 54.2346C40.2753 54.2313 40.0237 54.228 39.7705 54.2278Z" fill="#030303" stroke="white" stroke-width="0.3"/>
<path d="M110.225 54.2298L110.226 54.225H110.04C109.793 54.225 109.549 54.2288 109.306 54.2325C108.771 54.2408 108.242 54.2489 107.712 54.2165L107.712 54.2164L107.706 54.2163C107.153 54.2054 106.626 53.9801 106.236 53.5878C105.846 53.1956 105.624 52.6672 105.617 52.1142L105.617 52.1142L105.617 52.1073C105.6 51.8241 105.64 51.5404 105.736 51.2732C105.831 51.006 105.979 50.7608 106.172 50.5524C106.364 50.3439 106.597 50.1765 106.856 50.0601C107.114 49.9437 107.394 49.8807 107.678 49.875L107.678 49.875L107.681 49.8749C109.31 49.8038 110.946 49.806 112.575 49.8724L112.575 49.8725L112.58 49.8725C112.864 49.8737 113.144 49.9325 113.405 50.0454C113.665 50.1582 113.899 50.3228 114.094 50.529C114.289 50.7352 114.439 50.9789 114.537 51.2451C114.635 51.5114 114.678 51.7947 114.662 52.078L114.662 52.078L114.662 52.0832C114.64 53.2872 113.781 54.1627 112.487 54.2227L110.225 54.2298Z" fill="#030303" stroke="white" stroke-width="0.3"/>
<path d="M67.9188 54.2294H67.9185C67.676 54.2294 67.4353 54.2323 67.1957 54.2353C66.6568 54.2419 66.1235 54.2484 65.5889 54.2211L65.5889 54.221L65.5838 54.221C65.0151 54.2114 64.4727 53.9796 64.0728 53.5751C63.6729 53.1707 63.4471 52.6258 63.4439 52.057C63.4407 51.4882 63.6603 50.9408 64.0556 50.5318C64.451 50.1229 64.9907 49.885 65.5592 49.869L65.5592 49.869L65.5609 49.8689C67.1505 49.8066 68.748 49.8097 70.34 49.8662L70.34 49.8663L70.347 49.8662C70.6304 49.8631 70.9116 49.917 71.1739 50.0247C71.4361 50.1324 71.674 50.2917 71.8735 50.4931C72.0729 50.6945 72.2299 50.934 72.335 51.1972C72.4401 51.4605 72.4912 51.7422 72.4854 52.0256L72.4853 52.0256L72.4853 52.0297C72.4892 52.6598 72.2672 53.1925 71.8816 53.5746C71.4953 53.9572 70.9357 54.1978 70.2497 54.2248L70.2496 54.2248C69.7048 54.2469 69.1611 54.2409 68.6131 54.2349C68.3826 54.2324 68.1513 54.2298 67.9188 54.2294Z" fill="#030303" stroke="white" stroke-width="0.3"/>
<path d="M95.8389 54.2275L95.8401 54.2305C95.6698 54.2315 95.5003 54.2337 95.3313 54.2358C94.7961 54.2424 94.2662 54.249 93.7348 54.223L93.7346 54.223C92.4407 54.1612 91.5791 53.283 91.5575 52.0814L91.5575 52.0814L91.5574 52.0776C91.5451 51.7943 91.59 51.5114 91.6893 51.2458C91.7887 50.9802 91.9404 50.7373 92.1355 50.5316C92.3306 50.3258 92.5651 50.1614 92.8251 50.0481C93.085 49.9348 93.3651 49.875 93.6487 49.8722L93.6487 49.8722L93.6532 49.8721C95.2832 49.8072 96.9192 49.8038 98.5468 49.8758L98.5468 49.8758L98.5508 49.8759C98.8344 49.8808 99.114 49.9433 99.3727 50.0595C99.6313 50.1758 99.8637 50.3434 100.056 50.5522C100.248 50.7609 100.395 51.0066 100.489 51.2741C100.583 51.5416 100.622 51.8255 100.603 52.1084L100.603 52.1084L100.603 52.1171C100.598 52.6705 100.377 53.2 99.9868 53.5926C99.5968 53.9852 99.0688 54.2098 98.5154 54.2185L98.5154 54.2183L98.5089 54.2187C97.9517 54.2518 97.3957 54.2435 96.8332 54.2351C96.5784 54.2313 96.3223 54.2275 96.0641 54.2275H95.8389Z" fill="#030303" stroke="white" stroke-width="0.3"/>
<path d="M100.615 80.2024C100.603 81.4036 100.115 82.551 99.2573 83.3924C98.3999 84.2338 97.2436 84.7004 96.0424 84.6897C94.8469 84.6701 93.7077 84.1787 92.8729 83.3227C92.038 82.4665 91.5754 81.315 91.586 80.1191C91.5966 78.9233 92.0796 77.7802 92.9296 76.939C93.7794 76.0979 94.9271 75.6269 96.1227 75.6284C97.3237 75.6429 98.4701 76.132 99.3117 76.9889C100.153 77.8459 100.622 79.0011 100.615 80.2024Z" fill="#EEDEF2" stroke="white" stroke-width="0.3"/>
<path d="M68.0036 28.4406V28.4406L68 28.4406C67.4044 28.4533 66.8122 28.3469 66.2583 28.1277C65.7044 27.9084 65.1998 27.5808 64.7741 27.164C64.3485 26.7472 64.0103 26.2496 63.7795 25.7004C63.5487 25.1512 63.4299 24.5614 63.43 23.9657L63.43 23.9643C63.4248 23.369 63.537 22.7784 63.76 22.2264C63.9831 21.6743 64.3127 21.1717 64.73 20.747C65.1473 20.3224 65.6442 19.9841 66.1922 19.7514C66.7403 19.5188 67.3288 19.3964 67.9242 19.3912C68.5195 19.386 69.1101 19.4982 69.6621 19.7212C70.2141 19.9443 70.7168 20.2739 71.1415 20.6912C71.5661 21.1085 71.9044 21.6054 72.137 22.1534C72.3696 22.7015 72.492 23.29 72.4972 23.8854L72.4972 23.8865C72.5071 24.4822 72.398 25.0738 72.1764 25.6268C71.9548 26.1798 71.6251 26.6831 71.2067 27.1071C70.7883 27.5312 70.2895 27.8676 69.7395 28.0965C69.1895 28.3255 68.5994 28.4425 68.0036 28.4406Z" fill="#C054F2" stroke="white" stroke-width="0.3"/>
<path d="M35.3116 80.1372L35.3116 80.1356C35.315 79.5403 35.4357 78.9516 35.6667 78.4029C35.8977 77.8543 36.2345 77.3565 36.6578 76.9381C37.0812 76.5196 37.5828 76.1886 38.1341 75.964C38.6853 75.7394 39.2754 75.6256 39.8707 75.6291C40.466 75.6325 41.0547 75.7532 41.6033 75.9842C42.152 76.2152 42.6497 76.5519 43.0682 76.9753C43.4866 77.3987 43.8176 77.9003 44.0422 78.4516C44.2668 79.0028 44.3807 79.5929 44.3772 80.1882L44.3772 80.1895C44.379 80.7852 44.2617 81.3752 44.0323 81.925C43.803 82.4748 43.4661 82.9732 43.0415 83.391C42.6169 83.8088 42.1131 84.1375 41.5597 84.358C41.0063 84.5784 40.4144 84.6861 39.8188 84.6747L39.816 84.8247L39.8146 84.6747C39.2188 84.6801 38.628 84.5662 38.077 84.3396C37.5259 84.1131 37.0258 83.7785 36.6061 83.3556C36.1865 82.9327 35.8557 82.4301 35.6334 81.8773C35.411 81.3246 35.3016 80.7329 35.3116 80.1372Z" fill="#EEDEF2" stroke="white" stroke-width="0.3"/>
</svg>
