<svg width="106" height="90" viewBox="0 0 106 90" fill="none" xmlns="http://www.w3.org/2000/svg">
<mask id="mask0_73053_3071" style="mask-type:alpha" maskUnits="userSpaceOnUse" x="2" y="2" width="102" height="88">
<path d="M50.9017 4.93351C51.6739 3.61295 53.5824 3.61295 54.3546 4.93352L101.753 85.9904C102.533 87.3237 101.571 89 100.027 89H5.22953C3.68501 89 2.72339 87.3237 3.50305 85.9904L50.9017 4.93351Z" fill="#C4C4C4" stroke="white" stroke-width="2"/>
</mask>
<g mask="url(#mask0_73053_3071)">
<path d="M50.9019 4.93363C51.6741 3.61307 53.5827 3.61307 54.3549 4.93364L101.753 85.9906C102.533 87.3239 101.572 89.0001 100.027 89.0001H5.22978C3.68525 89.0001 2.72364 87.3238 3.50329 85.9906L50.9019 4.93363Z" stroke="white" stroke-width="2"/>
<line x1="-126.537" y1="127.456" x2="135.456" y2="-134.537" stroke="#E5E7FA" stroke-width="0.75"/>
<line x1="-120.836" y1="133.156" x2="141.156" y2="-128.837" stroke="#E5E7FA" stroke-width="0.75"/>
<line x1="-115.136" y1="138.856" x2="146.856" y2="-123.136" stroke="#E5E7FA" stroke-width="0.75"/>
<line x1="-109.436" y1="144.557" x2="152.557" y2="-117.436" stroke="#E5E7FA" stroke-width="0.75"/>
<line x1="-103.736" y1="150.257" x2="158.257" y2="-111.736" stroke="#E5E7FA" stroke-width="0.75"/>
<line x1="-98.0357" y1="155.957" x2="163.957" y2="-106.036" stroke="#E5E7FA" stroke-width="0.75"/>
<line x1="-92.3355" y1="161.657" x2="169.657" y2="-100.335" stroke="#E5E7FA" stroke-width="0.75"/>
<line x1="-86.6353" y1="167.358" x2="175.357" y2="-94.6352" stroke="#E5E7FA" stroke-width="0.75"/>
<line x1="-80.9348" y1="173.058" x2="181.058" y2="-88.935" stroke="#E5E7FA" stroke-width="0.75"/>
<line x1="-75.2346" y1="178.758" x2="186.758" y2="-83.2348" stroke="#E5E7FA" stroke-width="0.75"/>
<line x1="-69.5345" y1="184.458" x2="192.458" y2="-77.5345" stroke="#E5E7FA" stroke-width="0.75"/>
<line x1="-63.8343" y1="190.158" x2="198.158" y2="-71.8343" stroke="#E5E7FA" stroke-width="0.75"/>
<line x1="-58.1341" y1="195.859" x2="203.859" y2="-66.1341" stroke="#E5E7FA" stroke-width="0.75"/>
<line x1="-52.4339" y1="201.559" x2="209.559" y2="-60.4339" stroke="#E5E7FA" stroke-width="0.75"/>
<line x1="-46.7337" y1="207.259" x2="215.259" y2="-54.7337" stroke="#E5E7FA" stroke-width="0.75"/>
<line x1="-41.0335" y1="212.959" x2="220.959" y2="-49.0335" stroke="#E5E7FA" stroke-width="0.75"/>
<line x1="-35.3333" y1="218.659" x2="226.659" y2="-43.3334" stroke="#E5E7FA" stroke-width="0.75"/>
<line x1="-29.6331" y1="224.36" x2="232.36" y2="-37.6332" stroke="#E5E7FA" stroke-width="0.75"/>
</g>
<path d="M50.9017 4.93363C51.6739 3.61307 53.5824 3.61307 54.3546 4.93364L101.753 85.9906C102.533 87.3239 101.571 89.0001 100.027 89.0001H5.22953C3.68501 89.0001 2.72339 87.3238 3.50305 85.9906L50.9017 4.93363Z" stroke="white" stroke-width="2"/>
</svg>
