<svg width="119" height="95" viewBox="0 0 119 95" fill="none" xmlns="http://www.w3.org/2000/svg">
<path d="M1.51149 80.3519C1.57034 80.6217 1.83676 80.7927 2.10656 80.7339L6.50318 79.7748C6.77297 79.716 6.94398 79.4496 6.88513 79.1798C6.82628 78.91 6.55985 78.739 6.29006 78.7978L2.38195 79.6503L1.52947 75.7422C1.47062 75.4724 1.20419 75.3014 0.934393 75.3603C0.664595 75.4191 0.493589 75.6855 0.552441 75.9553L1.51149 80.3519ZM53.3527 0.893439C53.2939 0.623641 53.0275 0.452635 52.7577 0.511487L48.361 1.47053C48.0912 1.52938 47.9202 1.79581 47.9791 2.06561C48.0379 2.3354 48.3044 2.50641 48.5742 2.44756L52.4823 1.59507L53.3347 5.50318C53.3936 5.77297 53.66 5.94398 53.9298 5.88513C54.1996 5.82628 54.3706 5.55985 54.3118 5.29006L53.3527 0.893439ZM2.42078 80.5155L53.285 1.27008L52.4434 0.729919L1.57922 79.9753L2.42078 80.5155Z" fill="#E5E7FA"/>
<path d="M117.96 80.3519C117.902 80.6217 117.635 80.7927 117.365 80.7339L112.969 79.7748C112.699 79.716 112.528 79.4496 112.587 79.1798C112.646 78.91 112.912 78.739 113.182 78.7978L117.09 79.6503L117.942 75.7422C118.001 75.4724 118.268 75.3014 118.538 75.3603C118.807 75.4191 118.978 75.6855 118.919 75.9553L117.96 80.3519ZM66.1192 0.893439C66.1781 0.623641 66.4445 0.452635 66.7143 0.511487L71.1109 1.47053C71.3807 1.52938 71.5517 1.79581 71.4928 2.06561C71.434 2.3354 71.1676 2.50641 70.8978 2.44756L66.9897 1.59507L66.1372 5.50318C66.0783 5.77297 65.8119 5.94398 65.5421 5.88513C65.2723 5.82628 65.1013 5.55985 65.1602 5.29006L66.1192 0.893439ZM117.051 80.5155L66.1869 1.27008L67.0285 0.729919L117.893 79.9753L117.051 80.5155Z" fill="#E5E7FA"/>
<path d="M57.9725 8.86966C58.7596 7.64341 60.5517 7.6434 61.3388 8.86966L84.2457 44.5588L106.712 79.5611C107.566 80.8922 106.61 82.6414 105.029 82.6414H14.2828C12.7011 82.6414 11.7453 80.8922 12.5997 79.5611L57.9725 8.86966Z" stroke="white" stroke-width="2"/>
<path d="M8.43893 90.6464C8.24366 90.8417 8.24366 91.1583 8.43893 91.3536L11.6209 94.5355C11.8162 94.7308 12.1328 94.7308 12.328 94.5355C12.5233 94.3403 12.5233 94.0237 12.328 93.8284L9.49959 91L12.328 88.1716C12.5233 87.9763 12.5233 87.6597 12.328 87.4645C12.1328 87.2692 11.8162 87.2692 11.6209 87.4645L8.43893 90.6464ZM110.874 91.3536C111.07 91.1583 111.07 90.8417 110.874 90.6464L107.692 87.4645C107.497 87.2692 107.181 87.2692 106.985 87.4645C106.79 87.6597 106.79 87.9763 106.985 88.1716L109.814 91L106.985 93.8284C106.79 94.0237 106.79 94.3403 106.985 94.5355C107.181 94.7308 107.497 94.7308 107.692 94.5355L110.874 91.3536ZM8.79248 91.5H110.521V90.5H8.79248V91.5Z" fill="#E5E7FA"/>
</svg>
