<svg width="106" height="90" viewBox="0 0 106 90" fill="none" xmlns="http://www.w3.org/2000/svg">
<mask id="mask0_73053_3013" style="mask-type:alpha" maskUnits="userSpaceOnUse" x="2" y="2" width="102" height="88">
<path d="M50.9017 4.93351C51.6739 3.61295 53.5824 3.61295 54.3546 4.93352L101.753 85.9904C102.533 87.3237 101.571 89 100.027 89H5.22953C3.68501 89 2.72339 87.3237 3.50305 85.9904L50.9017 4.93351Z" fill="white" stroke="white" stroke-width="2"/>
</mask>
<g mask="url(#mask0_73053_3013)">
<path d="M52.1265 1C52.1265 1.27614 52.3503 1.5 52.6265 1.5C52.9026 1.5 53.1265 1.27614 53.1265 1H52.1265ZM53.1265 4C53.1265 3.72386 52.9026 3.5 52.6265 3.5C52.3503 3.5 52.1265 3.72386 52.1265 4H53.1265ZM52.1265 6C52.1265 6.27614 52.3503 6.5 52.6265 6.5C52.9026 6.5 53.1265 6.27614 53.1265 6H52.1265ZM53.1265 9C53.1265 8.72386 52.9026 8.5 52.6265 8.5C52.3503 8.5 52.1265 8.72386 52.1265 9H53.1265ZM52.1265 11C52.1265 11.2761 52.3503 11.5 52.6265 11.5C52.9026 11.5 53.1265 11.2761 53.1265 11H52.1265ZM53.1265 14C53.1265 13.7239 52.9026 13.5 52.6265 13.5C52.3503 13.5 52.1265 13.7239 52.1265 14H53.1265ZM52.1265 16C52.1265 16.2761 52.3503 16.5 52.6265 16.5C52.9026 16.5 53.1265 16.2761 53.1265 16H52.1265ZM53.1265 19C53.1265 18.7239 52.9026 18.5 52.6265 18.5C52.3503 18.5 52.1265 18.7239 52.1265 19H53.1265ZM52.1265 21C52.1265 21.2761 52.3503 21.5 52.6265 21.5C52.9026 21.5 53.1265 21.2761 53.1265 21H52.1265ZM53.1265 24C53.1265 23.7239 52.9026 23.5 52.6265 23.5C52.3503 23.5 52.1265 23.7239 52.1265 24H53.1265ZM52.1265 26C52.1265 26.2761 52.3503 26.5 52.6265 26.5C52.9026 26.5 53.1265 26.2761 53.1265 26H52.1265ZM53.1265 29C53.1265 28.7239 52.9026 28.5 52.6265 28.5C52.3503 28.5 52.1265 28.7239 52.1265 29H53.1265ZM52.1265 31C52.1265 31.2761 52.3503 31.5 52.6265 31.5C52.9026 31.5 53.1265 31.2761 53.1265 31H52.1265ZM53.1265 34C53.1265 33.7239 52.9026 33.5 52.6265 33.5C52.3503 33.5 52.1265 33.7239 52.1265 34H53.1265ZM52.1265 36C52.1265 36.2761 52.3503 36.5 52.6265 36.5C52.9026 36.5 53.1265 36.2761 53.1265 36H52.1265ZM53.1265 39C53.1265 38.7239 52.9026 38.5 52.6265 38.5C52.3503 38.5 52.1265 38.7239 52.1265 39H53.1265ZM52.1265 41C52.1265 41.2761 52.3503 41.5 52.6265 41.5C52.9026 41.5 53.1265 41.2761 53.1265 41H52.1265ZM53.1265 44C53.1265 43.7239 52.9026 43.5 52.6265 43.5C52.3503 43.5 52.1265 43.7239 52.1265 44H53.1265ZM52.1265 46C52.1265 46.2761 52.3503 46.5 52.6265 46.5C52.9026 46.5 53.1265 46.2761 53.1265 46H52.1265ZM53.1265 49C53.1265 48.7239 52.9026 48.5 52.6265 48.5C52.3503 48.5 52.1265 48.7239 52.1265 49H53.1265ZM52.1265 51C52.1265 51.2761 52.3503 51.5 52.6265 51.5C52.9026 51.5 53.1265 51.2761 53.1265 51H52.1265ZM53.1265 54C53.1265 53.7239 52.9026 53.5 52.6265 53.5C52.3503 53.5 52.1265 53.7239 52.1265 54H53.1265ZM52.1265 56C52.1265 56.2761 52.3503 56.5 52.6265 56.5C52.9026 56.5 53.1265 56.2761 53.1265 56H52.1265ZM53.1265 59C53.1265 58.7239 52.9026 58.5 52.6265 58.5C52.3503 58.5 52.1265 58.7239 52.1265 59H53.1265ZM52.1265 61C52.1265 61.2761 52.3503 61.5 52.6265 61.5C52.9026 61.5 53.1265 61.2761 53.1265 61H52.1265ZM53.1265 64C53.1265 63.7239 52.9026 63.5 52.6265 63.5C52.3503 63.5 52.1265 63.7239 52.1265 64H53.1265ZM52.1265 66C52.1265 66.2761 52.3503 66.5 52.6265 66.5C52.9026 66.5 53.1265 66.2761 53.1265 66H52.1265ZM53.1265 69C53.1265 68.7239 52.9026 68.5 52.6265 68.5C52.3503 68.5 52.1265 68.7239 52.1265 69H53.1265ZM52.1265 71C52.1265 71.2761 52.3503 71.5 52.6265 71.5C52.9026 71.5 53.1265 71.2761 53.1265 71H52.1265ZM53.1265 74C53.1265 73.7239 52.9026 73.5 52.6265 73.5C52.3503 73.5 52.1265 73.7239 52.1265 74H53.1265ZM52.1265 76C52.1265 76.2761 52.3503 76.5 52.6265 76.5C52.9026 76.5 53.1265 76.2761 53.1265 76H52.1265ZM53.1265 79C53.1265 78.7239 52.9026 78.5 52.6265 78.5C52.3503 78.5 52.1265 78.7239 52.1265 79H53.1265ZM52.1265 81C52.1265 81.2761 52.3503 81.5 52.6265 81.5C52.9026 81.5 53.1265 81.2761 53.1265 81H52.1265ZM53.1265 84C53.1265 83.7239 52.9026 83.5 52.6265 83.5C52.3503 83.5 52.1265 83.7239 52.1265 84H53.1265ZM52.1265 86C52.1265 86.2761 52.3503 86.5 52.6265 86.5C52.9026 86.5 53.1265 86.2761 53.1265 86H52.1265ZM53.1265 89C53.1265 88.7239 52.9026 88.5 52.6265 88.5C52.3503 88.5 52.1265 88.7239 52.1265 89H53.1265ZM52.1265 0V1H53.1265V0L52.1265 0ZM52.1265 4V6H53.1265V4H52.1265ZM52.1265 9V11H53.1265V9H52.1265ZM52.1265 14V16H53.1265V14H52.1265ZM52.1265 19V21H53.1265V19H52.1265ZM52.1265 24V26H53.1265V24H52.1265ZM52.1265 29V31H53.1265V29H52.1265ZM52.1265 34V36H53.1265V34H52.1265ZM52.1265 39V41H53.1265V39H52.1265ZM52.1265 44V46H53.1265V44H52.1265ZM52.1265 49V51H53.1265V49H52.1265ZM52.1265 54V56H53.1265V54H52.1265ZM52.1265 59V61H53.1265V59H52.1265ZM52.1265 64V66H53.1265V64H52.1265ZM52.1265 69V71H53.1265V69H52.1265ZM52.1265 74V76H53.1265V74H52.1265ZM52.1265 79V81H53.1265V79H52.1265ZM52.1265 84V86H53.1265V84H52.1265ZM52.1265 89V90H53.1265V89H52.1265Z" fill="#E5E7FA"/>
</g>
<path d="M50.9017 4.93351C51.6739 3.61295 53.5824 3.61295 54.3546 4.93352L101.753 85.9904C102.533 87.3237 101.571 89 100.027 89H5.22953C3.68501 89 2.72339 87.3237 3.50305 85.9904L50.9017 4.93351Z" stroke="white" stroke-width="2"/>
</svg>
